<svg xmlns="http://www.w3.org/2000/svg" xmlns:xlink="http://www.w3.org/1999/xlink" viewBox="0 0 373.93 293.35"><defs><style>.cls-1{fill:url(#linear-gradient);}.cls-2{fill:url(#linear-gradient-2);}.cls-3{fill:none;}.cls-4{isolation:isolate;}.cls-5{clip-path:url(#clip-path);}.cls-6{fill:url(#linear-gradient-3);}.cls-7{fill:url(#linear-gradient-4);}.cls-8{mask:url(#mask);}.cls-11,.cls-9{opacity:0.19;mix-blend-mode:multiply;}.cls-9{fill:url(#radial-gradient);}.cls-10{mask:url(#mask-2);}.cls-11{fill:url(#radial-gradient-2);}</style><linearGradient id="linear-gradient" x1="27.51" y1="-24.66" x2="364" y2="311.83" gradientTransform="translate(-0.51 41.44) rotate(0.14)" gradientUnits="userSpaceOnUse"><stop offset="0" stop-color="#00c6ff"/><stop offset="1" stop-color="#0072ff"/></linearGradient><linearGradient id="linear-gradient-2" x1="69.33" y1="-66.17" x2="404.45" y2="268.95" xlink:href="#linear-gradient"/><clipPath id="clip-path"><path class="cls-3" d="M296.75,47l-9.65-3A14.1,14.1,0,0,0,274.47,46a15,15,0,0,0-6.1,11.76l-.47-.1V49.07a14.89,14.89,0,0,0-10.46-14.32L247.9,31.9a14.15,14.15,0,0,0-12.48,2.18,15.07,15.07,0,0,0-6.08,11.85l-.06,3.53-4.46-1,.05-12.91a14.74,14.74,0,0,0-10.28-14.3l-23.13-7.22a14,14,0,0,0-8.39,0l-23.16,7.1a14.74,14.74,0,0,0-10.35,14.25l0,12.91-4.46.93,0-3.53a15.06,15.06,0,0,0-6-11.88,14.13,14.13,0,0,0-12.47-2.24L117,34.4a14.91,14.91,0,0,0-10.53,14.28l0,8.62-.47.09a15,15,0,0,0-6-11.78,14.14,14.14,0,0,0-12.63-2.17l-9.66,3A14.73,14.73,0,0,0,67.27,60.63l-.18,72.86L66.9,210.1a14.9,14.9,0,0,0,6.74,12.62l105.21,68.33a14.26,14.26,0,0,0,15.47,0l105.54-67.81a14.93,14.93,0,0,0,6.81-12.58l.17-72,.2-77.45A14.76,14.76,0,0,0,296.75,47ZM186.62,275l-102-66.28.36-146.09,3.36-1a14.9,14.9,0,0,0,5.49,11,14.24,14.24,0,0,0,11.89,2.91l6.79-1.41A14.86,14.86,0,0,0,124.1,59.55l0-8.82,3.29-1,0,3.2A15,15,0,0,0,133,64.5a14.24,14.24,0,0,0,11.83,2.86l10.75-2.24a14.85,14.85,0,0,0,11.63-14.57V37.41l20-6.14,20,6.24-.05,13.14a14.86,14.86,0,0,0,11.56,14.63l10.74,2.29a14.18,14.18,0,0,0,11.84-2.81,14.94,14.94,0,0,0,5.62-11.5l.06-3.19,3.28,1,0,8.81a14.87,14.87,0,0,0,11.56,14.61l6.78,1.44a14.18,14.18,0,0,0,11.9-2.85,15,15,0,0,0,5.55-11l3.35,1L289,207.71Z"/></clipPath><linearGradient id="linear-gradient-3" x1="101.34" y1="-37.36" x2="304.43" y2="173.44" gradientTransform="translate(-0.51 41.44) rotate(0.14)" gradientUnits="userSpaceOnUse"><stop offset="0" stop-color="#f9f9f9"/><stop offset="1" stop-color="#d3d3d3"/></linearGradient><linearGradient id="linear-gradient-4" x1="261.73" y1="213.54" x2="83.31" y2="25.24" xlink:href="#linear-gradient-3"/><mask id="mask" x="0" y="0" width="306.94" height="293.35" maskUnits="userSpaceOnUse"><path class="cls-1" d="M186.72,275l-102-66.28L85,62.65S67.3,86.74,67.18,133.49L67,210.1a14.91,14.91,0,0,0,6.75,12.62l105.2,68.33a14.26,14.26,0,0,0,15.47,0L300,223.28a14.9,14.9,0,0,0,6.81-12.58l.18-72c-.12,46.75-17.85,69-17.85,69Z"/></mask><radialGradient id="radial-gradient" cx="75.96" cy="33.75" r="75.37" gradientTransform="translate(-0.51 41.44) rotate(0.14)" gradientUnits="userSpaceOnUse"><stop offset="0" stop-color="#1d1d1b"/><stop offset="0.58" stop-color="#2c2c2a" stop-opacity="0.94"/><stop offset="0.78" stop-color="#60605f" stop-opacity="0.7"/><stop offset="0.93" stop-color="#bcbcbc" stop-opacity="0.3"/><stop offset="1" stop-color="#fff" stop-opacity="0"/></radialGradient><mask id="mask-2" x="67.18" y="13.43" width="306.75" height="271.21" maskUnits="userSpaceOnUse"><path class="cls-2" d="M296.85,47l-9.65-3A14.11,14.11,0,0,0,274.56,46a15.07,15.07,0,0,0-6.1,11.76l-.47-.1,0-8.63a14.91,14.91,0,0,0-10.46-14.32L248,31.9a14.14,14.14,0,0,0-12.48,2.18,15.07,15.07,0,0,0-6.09,11.85l-.06,3.53-4.45-1L225,35.6a14.76,14.76,0,0,0-10.28-14.3l-23.13-7.22a14,14,0,0,0-8.39,0L160,21.16a14.77,14.77,0,0,0-10.35,14.25V48.32l-4.46.93-.05-3.53a15.08,15.08,0,0,0-6-11.88,14.14,14.14,0,0,0-12.47-2.24l-9.57,2.8a14.91,14.91,0,0,0-10.53,14.28l0,8.62-.47.09a15.07,15.07,0,0,0-6-11.78,14.14,14.14,0,0,0-12.63-2.17l-9.67,3A14.76,14.76,0,0,0,67.36,60.63l-.18,72.86C67.3,86.74,85,62.65,85,62.65l3.35-1a14.94,14.94,0,0,0,5.5,11,14.23,14.23,0,0,0,11.89,2.91l6.78-1.41a14.86,14.86,0,0,0,11.63-14.55l0-8.82,3.28-1,0,3.2a15,15,0,0,0,5.57,11.53,14.24,14.24,0,0,0,11.83,2.86l10.75-2.24a14.83,14.83,0,0,0,11.62-14.57l0-13.14,20-6.14,20,6.24-.05,13.14a14.84,14.84,0,0,0,11.55,14.63l10.74,2.29a14.2,14.2,0,0,0,11.85-2.81A14.94,14.94,0,0,0,247,53.26l0-3.19,3.29,1,0,8.81a14.85,14.85,0,0,0,11.55,14.61l6.78,1.44a14.18,14.18,0,0,0,11.9-2.85,14.88,14.88,0,0,0,5.55-11l3.36,1-.36,144.55s17.73-22.28,17.85-69l.19-77.45A14.74,14.74,0,0,0,296.85,47ZM286.14,58.2Z"/></mask><radialGradient id="radial-gradient-2" cx="299.48" cy="167.09" r="75.37" xlink:href="#radial-gradient"/></defs><title>Symbol-Asset 14</title><g class="cls-4"><g id="Layer_2" data-name="Layer 2"><g id="Layer_1-2" data-name="Layer 1"><g class="cls-5"><path class="cls-6" d="M296.85,47l-9.65-3A14.11,14.11,0,0,0,274.56,46a15.07,15.07,0,0,0-6.1,11.76l-.47-.1,0-8.63a14.91,14.91,0,0,0-10.46-14.32L248,31.9a14.14,14.14,0,0,0-12.48,2.18,15.07,15.07,0,0,0-6.09,11.85l-.06,3.53-4.45-1L225,35.6a14.76,14.76,0,0,0-10.28-14.3l-23.13-7.22a14,14,0,0,0-8.39,0L160,21.16a14.77,14.77,0,0,0-10.35,14.25V48.32l-4.46.93-.05-3.53a15.08,15.08,0,0,0-6-11.88,14.14,14.14,0,0,0-12.47-2.24l-9.57,2.8a14.91,14.91,0,0,0-10.53,14.28l0,8.62-.47.09a15.07,15.07,0,0,0-6-11.78,14.14,14.14,0,0,0-12.63-2.17l-9.67,3A14.76,14.76,0,0,0,67.36,60.63l-.18,72.86C67.3,86.74,85,62.65,85,62.65l3.35-1a14.94,14.94,0,0,0,5.5,11,14.23,14.23,0,0,0,11.89,2.91l6.78-1.41a14.86,14.86,0,0,0,11.63-14.55l0-8.82,3.28-1,0,3.2a15,15,0,0,0,5.57,11.53,14.24,14.24,0,0,0,11.83,2.86l10.75-2.24a14.83,14.83,0,0,0,11.62-14.57l0-13.14,20-6.14,20,6.24-.05,13.14a14.84,14.84,0,0,0,11.55,14.63l10.74,2.29a14.2,14.2,0,0,0,11.85-2.81A14.94,14.94,0,0,0,247,53.26l0-3.19,3.29,1,0,8.81a14.85,14.85,0,0,0,11.55,14.61l6.78,1.44a14.18,14.18,0,0,0,11.9-2.85,14.88,14.88,0,0,0,5.55-11l3.36,1-.36,146.09s17.73-23.82,17.85-70.57l.19-77.45A14.74,14.74,0,0,0,296.85,47ZM286.14,58.2Z"/><path class="cls-7" d="M186.72,275l-102-66.28L85,62.65S67.3,86.74,67.18,133.49L67,210.1a14.91,14.91,0,0,0,6.75,12.62l105.2,68.33a14.26,14.26,0,0,0,15.47,0L300,223.28a14.9,14.9,0,0,0,6.81-12.58l.18-72c-.12,46.75-17.85,69-17.85,69Z"/><g class="cls-8"><circle class="cls-9" cx="75.37" cy="75.37" r="75.37"/></g><g class="cls-10"><circle class="cls-11" cx="298.56" cy="209.27" r="75.37"/></g></g></g></g></g></svg>