<svg xmlns="http://www.w3.org/2000/svg" viewBox="0 0 323.2 547.15"><defs><style>.cls-1{fill:#fff;}.cls-2{fill:#294dea;}</style></defs><title>Bulwark_Design_Framework_Light</title><g id="Layer_2" data-name="Layer 2"><g id="Layer_1-2" data-name="Layer 1"><path class="cls-1" d="M323.2,7.35v426a6.94,6.94,0,0,1-7.35,7.34H7.35A6.94,6.94,0,0,1,0,433.38V7.35A6.94,6.94,0,0,1,7.35,0h308.5A6.94,6.94,0,0,1,323.2,7.35ZM308.51,426V14.69H14.69V426Z"/><path class="cls-1" d="M73.45,389.3a6.94,6.94,0,0,1-7.34,7.35,6.94,6.94,0,0,1-7.35-7.35h0A6.94,6.94,0,0,1,66.11,382,6.93,6.93,0,0,1,73.45,389.3Z"/><path class="cls-1" d="M44.07,389.3a6.94,6.94,0,0,1-7.34,7.35,6.94,6.94,0,0,1-7.35-7.35h0A6.94,6.94,0,0,1,36.73,382,6.94,6.94,0,0,1,44.07,389.3Z"/><path class="cls-2" d="M117.53,359.92a7.35,7.35,0,1,1-14.69,0h0a7.35,7.35,0,0,1,14.69,0Z"/><path class="cls-1" d="M146.91,418.69a7.35,7.35,0,0,1-14.69,0h0a7.35,7.35,0,1,1,14.69,0Z"/><path class="cls-1" d="M176.29,418.69a7.35,7.35,0,0,1-14.69,0h0a7.35,7.35,0,1,1,14.69,0Z"/><path class="cls-1" d="M205.67,418.69a7.35,7.35,0,0,1-14.69,0h0a7.35,7.35,0,1,1,14.69,0Z"/><path class="cls-1" d="M235.05,418.69a7.35,7.35,0,0,1-14.69,0h0a7.35,7.35,0,1,1,14.69,0Z"/><path class="cls-1" d="M264.43,418.69a7.35,7.35,0,0,1-14.69,0h0a7.35,7.35,0,1,1,14.69,0Z"/><path class="cls-1" d="M293.81,418.69a7.35,7.35,0,0,1-14.69,0h0a7.35,7.35,0,1,1,14.69,0Z"/><path class="cls-1" d="M102.84,330.54a7.35,7.35,0,0,1-14.7,0h0a7.35,7.35,0,0,1,14.7,0Z"/><path class="cls-1" d="M132.22,330.54a7.35,7.35,0,1,1-14.69,0h0a7.35,7.35,0,0,1,14.69,0Z"/><path class="cls-1" d="M161.6,389.3a7.35,7.35,0,1,1-14.69,0h0a7.35,7.35,0,0,1,14.69,0Z"/><path class="cls-1" d="M191,389.3a7.35,7.35,0,1,1-14.69,0h0a7.35,7.35,0,0,1,14.69,0Z"/><path class="cls-1" d="M220.36,389.3a7.35,7.35,0,1,1-14.69,0h0a7.35,7.35,0,0,1,14.69,0Z"/><path class="cls-1" d="M249.74,389.3a7.35,7.35,0,1,1-14.69,0h0a7.35,7.35,0,0,1,14.69,0Z"/><path class="cls-1" d="M279.12,389.3a7.35,7.35,0,1,1-14.69,0h0a7.35,7.35,0,0,1,14.69,0Z"/><path class="cls-1" d="M308.51,389.3a7.35,7.35,0,1,1-14.7,0h0a7.35,7.35,0,0,1,14.7,0Z"/><path class="cls-1" d="M88.14,418.69A6.93,6.93,0,0,1,80.8,426a6.94,6.94,0,0,1-7.35-7.34h0a6.94,6.94,0,0,1,7.35-7.35A6.94,6.94,0,0,1,88.14,418.69Z"/><path class="cls-1" d="M58.76,418.69A6.94,6.94,0,0,1,51.42,426a6.94,6.94,0,0,1-7.35-7.34h0a6.94,6.94,0,0,1,7.35-7.35A6.94,6.94,0,0,1,58.76,418.69Z"/><path class="cls-1" d="M117.53,301.16a7.35,7.35,0,1,1-14.69,0h0a7.35,7.35,0,1,1,14.69,0Z"/><path class="cls-1" d="M132.22,389.3a7.35,7.35,0,1,1-14.69,0h0a7.35,7.35,0,0,1,14.69,0Z"/><path class="cls-1" d="M176.29,359.92a7.35,7.35,0,1,1-14.69,0h0a7.35,7.35,0,0,1,14.69,0Z"/><path class="cls-1" d="M205.67,359.92a7.35,7.35,0,1,1-14.69,0h0a7.35,7.35,0,0,1,14.69,0Z"/><path class="cls-1" d="M235.05,359.92a7.35,7.35,0,1,1-14.69,0h0a7.35,7.35,0,0,1,14.69,0Z"/><path class="cls-1" d="M264.43,359.92a7.35,7.35,0,1,1-14.69,0h0a7.35,7.35,0,0,1,14.69,0Z"/><path class="cls-1" d="M293.81,359.92a7.35,7.35,0,1,1-14.69,0h0a7.35,7.35,0,0,1,14.69,0Z"/><path class="cls-1" d="M88.14,359.92a6.94,6.94,0,0,1-7.34,7.35,6.94,6.94,0,0,1-7.35-7.35h0a6.94,6.94,0,0,1,7.35-7.34A6.93,6.93,0,0,1,88.14,359.92Z"/><path class="cls-1" d="M58.76,359.92a6.94,6.94,0,0,1-7.34,7.35,6.94,6.94,0,0,1-7.35-7.35h0a6.94,6.94,0,0,1,7.35-7.34A6.94,6.94,0,0,1,58.76,359.92Z"/><path class="cls-1" d="M117.53,418.69a7.35,7.35,0,0,1-14.69,0h0a7.35,7.35,0,1,1,14.69,0Z"/><path class="cls-1" d="M161.6,330.54a7.35,7.35,0,1,1-14.69,0h0a7.35,7.35,0,0,1,14.69,0Z"/><path class="cls-1" d="M191,330.54a7.35,7.35,0,1,1-14.69,0h0a7.35,7.35,0,0,1,14.69,0Z"/><path class="cls-2" d="M220.36,330.54a7.35,7.35,0,1,1-14.69,0h0a7.35,7.35,0,0,1,14.69,0Z"/><path class="cls-1" d="M249.74,330.54a7.35,7.35,0,1,1-14.69,0h0a7.35,7.35,0,0,1,14.69,0Z"/><path class="cls-1" d="M279.12,330.54a7.35,7.35,0,1,1-14.69,0h0a7.35,7.35,0,0,1,14.69,0Z"/><path class="cls-1" d="M308.51,330.54a7.35,7.35,0,1,1-14.7,0h0a7.35,7.35,0,0,1,14.7,0Z"/><path class="cls-1" d="M73.45,330.54a6.94,6.94,0,0,1-7.34,7.35,6.94,6.94,0,0,1-7.35-7.35h0a6.94,6.94,0,0,1,7.35-7.34A6.93,6.93,0,0,1,73.45,330.54Z"/><path class="cls-1" d="M44.07,330.54a6.94,6.94,0,0,1-7.34,7.35,6.94,6.94,0,0,1-7.35-7.35h0a6.94,6.94,0,0,1,7.35-7.34A6.93,6.93,0,0,1,44.07,330.54Z"/><path class="cls-1" d="M102.84,389.3a7.35,7.35,0,0,1-14.7,0h0a7.35,7.35,0,0,1,14.7,0Z"/><path class="cls-1" d="M146.91,359.92a7.35,7.35,0,1,1-14.69,0h0a7.35,7.35,0,0,1,14.69,0Z"/><path class="cls-1" d="M176.29,301.16a7.35,7.35,0,1,1-14.69,0h0a7.35,7.35,0,1,1,14.69,0Z"/><path class="cls-1" d="M205.67,301.16a7.35,7.35,0,1,1-14.69,0h0a7.35,7.35,0,1,1,14.69,0Z"/><path class="cls-1" d="M235.05,301.16a7.35,7.35,0,1,1-14.69,0h0a7.35,7.35,0,1,1,14.69,0Z"/><path class="cls-1" d="M264.43,301.16a7.35,7.35,0,1,1-14.69,0h0a7.35,7.35,0,1,1,14.69,0Z"/><path class="cls-1" d="M293.81,301.16a7.35,7.35,0,1,1-14.69,0h0a7.35,7.35,0,1,1,14.69,0Z"/><path class="cls-1" d="M88.14,301.16a6.94,6.94,0,0,1-7.34,7.35,6.94,6.94,0,0,1-7.35-7.35h0a6.94,6.94,0,0,1,7.35-7.35A6.94,6.94,0,0,1,88.14,301.16Z"/><path class="cls-1" d="M146.91,301.16a7.35,7.35,0,1,1-14.69,0h0a7.35,7.35,0,1,1,14.69,0Z"/><path class="cls-1" d="M205.67,242.4a7.35,7.35,0,0,1-14.69,0h0a7.35,7.35,0,1,1,14.69,0Z"/><path class="cls-1" d="M73.45,198.33a6.93,6.93,0,0,1-7.34,7.34,6.94,6.94,0,0,1-7.35-7.34h0A6.94,6.94,0,0,1,66.11,191,6.94,6.94,0,0,1,73.45,198.33Z"/><path class="cls-1" d="M58.76,154.25a6.94,6.94,0,0,1-7.34,7.35,6.94,6.94,0,0,1-7.35-7.35h0a6.94,6.94,0,0,1,7.35-7.34A6.94,6.94,0,0,1,58.76,154.25Z"/><path class="cls-1" d="M117.53,154.25a7.35,7.35,0,1,1-14.69,0h0a7.35,7.35,0,0,1,14.69,0Z"/><path class="cls-1" d="M205.67,154.25a7.35,7.35,0,1,1-14.69,0h0a7.35,7.35,0,0,1,14.69,0Z"/><path class="cls-2" d="M279.12,154.25a7.35,7.35,0,1,1-14.69,0h0a7.35,7.35,0,0,1,14.69,0Z"/><path class="cls-1" d="M44.07,110.18a6.94,6.94,0,0,1-7.34,7.35,6.94,6.94,0,0,1-7.35-7.35h0a6.94,6.94,0,0,1,7.35-7.34A6.93,6.93,0,0,1,44.07,110.18Z"/><path class="cls-1" d="M102.84,110.18a7.35,7.35,0,0,1-14.7,0h0a7.35,7.35,0,0,1,14.7,0Z"/><path class="cls-1" d="M191,110.18a7.35,7.35,0,1,1-14.69,0h0a7.35,7.35,0,0,1,14.69,0Z"/><path class="cls-1" d="M264.43,110.18a7.35,7.35,0,1,1-14.69,0h0a7.35,7.35,0,0,1,14.69,0Z"/><path class="cls-1" d="M161.6,198.33a7.35,7.35,0,0,1-14.69,0h0a7.35,7.35,0,1,1,14.69,0Z"/><path class="cls-1" d="M249.74,198.33a7.35,7.35,0,0,1-14.69,0h0a7.35,7.35,0,1,1,14.69,0Z"/><path class="cls-1" d="M308.51,242.4a7.35,7.35,0,0,1-14.7,0h0a7.35,7.35,0,1,1,14.7,0Z"/><path class="cls-1" d="M29.38,242.4A6.94,6.94,0,0,1,22,249.74a6.94,6.94,0,0,1-7.35-7.34h0A6.94,6.94,0,0,1,22,235.05,6.94,6.94,0,0,1,29.38,242.4Z"/><path class="cls-2" d="M88.14,242.4a6.93,6.93,0,0,1-7.34,7.34,6.94,6.94,0,0,1-7.35-7.34h0a6.94,6.94,0,0,1,7.35-7.35A6.94,6.94,0,0,1,88.14,242.4Z"/><path class="cls-1" d="M146.91,242.4a7.35,7.35,0,0,1-14.69,0h0a7.35,7.35,0,1,1,14.69,0Z"/><path class="cls-1" d="M220.36,271.78a7.35,7.35,0,0,1-14.69,0h0a7.35,7.35,0,1,1,14.69,0Z"/><path class="cls-1" d="M249.74,242.4a7.35,7.35,0,0,1-14.69,0h0a7.35,7.35,0,1,1,14.69,0Z"/><path class="cls-1" d="M58.76,301.16a6.94,6.94,0,0,1-7.34,7.35,6.94,6.94,0,0,1-7.35-7.35h0a6.94,6.94,0,0,1,7.35-7.35A6.94,6.94,0,0,1,58.76,301.16Z"/><path class="cls-1" d="M29.38,418.69A6.94,6.94,0,0,1,22,426a6.94,6.94,0,0,1-7.35-7.34h0A6.94,6.94,0,0,1,22,411.34,6.94,6.94,0,0,1,29.38,418.69Z"/><path class="cls-1" d="M29.38,359.92A6.94,6.94,0,0,1,22,367.27a6.94,6.94,0,0,1-7.35-7.35h0A6.94,6.94,0,0,1,22,352.58,6.94,6.94,0,0,1,29.38,359.92Z"/><path class="cls-1" d="M29.38,301.16A6.94,6.94,0,0,1,22,308.51a6.94,6.94,0,0,1-7.35-7.35h0A6.94,6.94,0,0,1,22,293.81,6.94,6.94,0,0,1,29.38,301.16Z"/><path class="cls-1" d="M58.76,271.78a6.93,6.93,0,0,1-7.34,7.34,6.94,6.94,0,0,1-7.35-7.34h0a6.94,6.94,0,0,1,7.35-7.35A6.94,6.94,0,0,1,58.76,271.78Z"/><path class="cls-1" d="M117.53,271.78a7.35,7.35,0,0,1-14.69,0h0a7.35,7.35,0,1,1,14.69,0Z"/><path class="cls-1" d="M191,271.78a7.35,7.35,0,0,1-14.69,0h0a7.35,7.35,0,1,1,14.69,0Z"/><path class="cls-1" d="M279.12,271.78a7.35,7.35,0,0,1-14.69,0h0a7.35,7.35,0,1,1,14.69,0Z"/><path class="cls-1" d="M64.32,503.19a20.6,20.6,0,0,1,4.55,13.21q0,11-7.33,17.22t-21,6.18H.62V454.1H39.53q13.1,0,20.25,5.69T66.93,476A20.07,20.07,0,0,1,62.81,489,19,19,0,0,1,52,495.68,21.43,21.43,0,0,1,64.32,503.19Zm-43-14.06H34.93q10.78,0,10.79-9.21t-11-9.22H21.35Zm26.3,24.37a9,9,0,0,0-3-7.22q-3-2.59-8.6-2.6H21.35V523H36.14Q47.66,523,47.65,513.5Z"/><path class="cls-1" d="M145.42,519.13a37.82,37.82,0,0,1-15.52,15.22q-10.11,5.45-23.82,5.45H73.72V454.1h32.36q13.83,0,23.89,5.33a37.32,37.32,0,0,1,15.45,15,48.89,48.89,0,0,1,0,44.67Zm-22.3-4.3q6.72-6.42,6.72-18.06t-6.72-18.07q-6.74-6.42-18.85-6.42H94.45v49h9.82Q116.39,521.25,123.12,514.83Z"/><path class="cls-1" d="M212.4,454.1v16.48H177.24v18.79H204.4v15.76H177.24V539.8H156.51V454.1Z"/><path class="cls-2" d="M219.74,539.8a7.35,7.35,0,1,1-14.69,0h0a7.35,7.35,0,0,1,14.69,0Z"/></g></g></svg>