<svg xmlns="http://www.w3.org/2000/svg" xmlns:xlink="http://www.w3.org/1999/xlink" viewBox="0 0 373.93 378.51"><defs><style>.cls-1{fill:url(#linear-gradient);}.cls-2{fill:url(#linear-gradient-2);}.cls-3{isolation:isolate;}.cls-4{clip-path:url(#clip-path);}.cls-5{mask:url(#mask);}.cls-6{opacity:0.19;mix-blend-mode:multiply;}.cls-7{mask:url(#mask-2);}</style><linearGradient id="linear-gradient" x1="26.46" y1="-27.51" x2="362.95" y2="308.97" gradientTransform="translate(0.53 44.29) rotate(0.14)" gradientUnits="userSpaceOnUse"><stop offset="0" stop-color="#00c6ff"/><stop offset="1" stop-color="#0072ff"/></linearGradient><linearGradient id="linear-gradient-2" x1="68.28" y1="-69.02" x2="403.4" y2="266.1" xlink:href="#linear-gradient"/><clipPath id="clip-path"><path d="M296.75,47l-9.65-3A14.1,14.1,0,0,0,274.47,46a15,15,0,0,0-6.1,11.76l-.47-.1V49.07a14.89,14.89,0,0,0-10.46-14.32L247.9,31.9a14.15,14.15,0,0,0-12.48,2.18,15.07,15.07,0,0,0-6.08,11.85l-.06,3.53-4.46-1,.05-12.91a14.74,14.74,0,0,0-10.28-14.3l-23.13-7.22a14,14,0,0,0-8.39,0l-23.16,7.1a14.74,14.74,0,0,0-10.35,14.25l0,12.91-4.46.93,0-3.53a15.06,15.06,0,0,0-6-11.88,14.13,14.13,0,0,0-12.47-2.24L117,34.4a14.91,14.91,0,0,0-10.53,14.28l0,8.62-.47.09a15,15,0,0,0-6-11.78,14.14,14.14,0,0,0-12.63-2.17l-9.66,3A14.73,14.73,0,0,0,67.27,60.63l-.18,72.86L66.9,210.1a14.9,14.9,0,0,0,6.74,12.62l105.21,68.33a14.26,14.26,0,0,0,15.47,0l105.54-67.81a14.93,14.93,0,0,0,6.81-12.58l.17-72,.2-77.45A14.76,14.76,0,0,0,296.75,47ZM186.62,275l-102-66.28.36-146.09,3.36-1a14.9,14.9,0,0,0,5.49,11,14.24,14.24,0,0,0,11.89,2.91l6.79-1.41A14.86,14.86,0,0,0,124.1,59.55l0-8.82,3.29-1,0,3.2A15,15,0,0,0,133,64.5a14.24,14.24,0,0,0,11.83,2.86l10.75-2.24a14.85,14.85,0,0,0,11.63-14.57V37.41l20-6.14,20,6.24-.05,13.14a14.86,14.86,0,0,0,11.56,14.63l10.74,2.29a14.18,14.18,0,0,0,11.84-2.81,14.94,14.94,0,0,0,5.62-11.5l.06-3.19,3.28,1,0,8.81a14.87,14.87,0,0,0,11.56,14.61l6.78,1.44a14.18,14.18,0,0,0,11.9-2.85,15,15,0,0,0,5.55-11l3.35,1L289,207.71Z"/></clipPath><mask id="mask" x="0" y="0" width="306.94" height="293.35" maskUnits="userSpaceOnUse"><path class="cls-1" d="M186.72,275l-102-66.28L85,62.65S67.3,86.74,67.18,133.49L67,210.1a14.91,14.91,0,0,0,6.75,12.62l105.2,68.33a14.26,14.26,0,0,0,15.47,0L300,223.28a14.9,14.9,0,0,0,6.81-12.58l.18-72c-.12,46.75-17.85,69-17.85,69Z"/></mask><mask id="mask-2" x="67.18" y="13.43" width="306.75" height="271.21" maskUnits="userSpaceOnUse"><path class="cls-2" d="M296.85,47l-9.65-3A14.11,14.11,0,0,0,274.56,46a15.07,15.07,0,0,0-6.1,11.76l-.47-.1,0-8.63a14.91,14.91,0,0,0-10.46-14.32L248,31.9a14.14,14.14,0,0,0-12.48,2.18,15.07,15.07,0,0,0-6.09,11.85l-.06,3.53-4.45-1L225,35.6a14.76,14.76,0,0,0-10.28-14.3l-23.13-7.22a14,14,0,0,0-8.39,0L160,21.16a14.77,14.77,0,0,0-10.35,14.25V48.32l-4.46.93-.05-3.53a15.08,15.08,0,0,0-6-11.88,14.14,14.14,0,0,0-12.47-2.24l-9.57,2.8a14.91,14.91,0,0,0-10.53,14.28l0,8.62-.47.09a15.07,15.07,0,0,0-6-11.78,14.14,14.14,0,0,0-12.63-2.17l-9.67,3A14.76,14.76,0,0,0,67.36,60.63l-.18,72.86C67.3,86.74,85,62.65,85,62.65l3.35-1a14.94,14.94,0,0,0,5.5,11,14.23,14.23,0,0,0,11.89,2.91l6.78-1.41a14.86,14.86,0,0,0,11.63-14.55l0-8.82,3.28-1,0,3.2a15,15,0,0,0,5.57,11.53,14.24,14.24,0,0,0,11.83,2.86l10.75-2.24a14.83,14.83,0,0,0,11.62-14.57l0-13.14,20-6.14,20,6.24-.05,13.14a14.84,14.84,0,0,0,11.55,14.63l10.74,2.29a14.2,14.2,0,0,0,11.85-2.81A14.94,14.94,0,0,0,247,53.26l0-3.19,3.29,1,0,8.81a14.85,14.85,0,0,0,11.55,14.61l6.78,1.44a14.18,14.18,0,0,0,11.9-2.85,14.88,14.88,0,0,0,5.55-11l3.36,1-.36,144.55s17.73-22.28,17.85-69l.19-77.45A14.74,14.74,0,0,0,296.85,47ZM286.14,58.2Z"/></mask></defs><title>Full-Asset 10</title><g class="cls-3"><g id="Layer_2" data-name="Layer 2"><g id="Layer_1-2" data-name="Layer 1"><path d="M86.65,358a2.05,2.05,0,0,1-2.05-2V336.3a2.05,2.05,0,0,1,2.05-2H93c5.31,0,7.21,2.89,7.21,6.13a5.18,5.18,0,0,1-2.6,4.78c2.64,1,3.66,2.92,3.66,5.67,0,4.29-2.57,7.11-7.64,7.11Zm2-14H93c2.22,0,3.13-1.27,3.13-3s-.91-3-3.13-3H88.69Zm0,10.35h4.92c2.5,0,3.49-1.34,3.49-3.45a3.13,3.13,0,0,0-3.49-3.45H88.69Z"/><path d="M115.15,350.2V336a2,2,0,0,1,4.08,0V350.2c0,2.15.81,4.65,4.79,4.65s4.78-2.5,4.78-4.65V336a2,2,0,0,1,4.08,0V350.2c0,4-1.76,8.24-8.86,8.24S115.15,354.22,115.15,350.2Z"/><path d="M159.91,354.15a1.9,1.9,0,1,1,0,3.8H149.49a1.94,1.94,0,0,1-2-2V336a2,2,0,0,1,4.09,0v18.13Z"/><path d="M184.79,342.29l-4,14.43a2,2,0,0,1-2,1.51,2,2,0,0,1-1.94-1.41l-6-20.16a1.91,1.91,0,0,1-.1-.64,2,2,0,0,1,2-2,2,2,0,0,1,1.94,1.41l4.11,14.78,4-14.71a2.06,2.06,0,0,1,3.95,0l4,14.71,4.12-14.78a2,2,0,0,1,1.93-1.41,2,2,0,0,1,2,2,1.91,1.91,0,0,1-.1.64l-6,20.16a2,2,0,0,1-1.94,1.41,2,2,0,0,1-2-1.51Z"/><path d="M214.17,351.79l-2.15,5.1a2.08,2.08,0,0,1-1.9,1.34,2,2,0,0,1-2-2,2.09,2.09,0,0,1,.14-.74l8.31-20.23a2,2,0,0,1,3.73,0l8.3,20.23a1.91,1.91,0,0,1,.15.74,2,2,0,0,1-2,2,2.07,2.07,0,0,1-1.9-1.34l-2.15-5.1Zm4.25-11.12-2.88,7.39h5.77Z"/><path d="M246.15,348.87v7.32a2,2,0,1,1-4.08,0V336.3a2,2,0,0,1,2-2h6.72a7.06,7.06,0,0,1,7.43,7.36c0,3.34-2,6.58-5.42,7l5.21,6.34a2,2,0,0,1,.42,1.23,2,2,0,0,1-2,2,2.08,2.08,0,0,1-1.59-.74l-6.4-8.62Zm0-10.95v7.36h4.75c2.19,0,3.14-1.8,3.14-3.66s-.95-3.7-3.24-3.7Z"/><path d="M276.41,344.08l8.45-9.43a2,2,0,0,1,3.45,1.3,1.91,1.91,0,0,1-.53,1.34l-6.62,7.18,7.78,10.59a1.91,1.91,0,0,1,.39,1.16,2,2,0,0,1-2,2,2,2,0,0,1-1.65-.88l-7.25-10-2,2.11v6.76a2,2,0,1,1-4.08,0V336a2,2,0,0,1,4.08,0Z"/><path d="M86.65,358a2.05,2.05,0,0,1-2.05-2V336.3a2.05,2.05,0,0,1,2.05-2H93c5.31,0,7.21,2.89,7.21,6.13a5.18,5.18,0,0,1-2.6,4.78c2.64,1,3.66,2.92,3.66,5.67,0,4.29-2.57,7.11-7.64,7.11Zm2-14H93c2.22,0,3.13-1.27,3.13-3s-.91-3-3.13-3H88.69Zm0,10.35h4.92c2.5,0,3.49-1.34,3.49-3.45a3.13,3.13,0,0,0-3.49-3.45H88.69Z"/><path d="M115.15,350.2V336a2,2,0,0,1,4.08,0V350.2c0,2.15.81,4.65,4.79,4.65s4.78-2.5,4.78-4.65V336a2,2,0,0,1,4.08,0V350.2c0,4-1.76,8.24-8.86,8.24S115.15,354.22,115.15,350.2Z"/><path d="M159.91,354.15a1.9,1.9,0,1,1,0,3.8H149.49a1.94,1.94,0,0,1-2-2V336a2,2,0,0,1,4.09,0v18.13Z"/><path d="M184.79,342.29l-4,14.42a2,2,0,0,1-2,1.52,2,2,0,0,1-1.94-1.41l-6-20.17a1.81,1.81,0,0,1-.1-.63,2,2,0,0,1,2-2,2,2,0,0,1,1.94,1.41l4.11,14.78,4-14.71a2.06,2.06,0,0,1,3.95,0l4,14.71,4.12-14.78a2,2,0,0,1,1.93-1.41,2,2,0,0,1,2,2,1.81,1.81,0,0,1-.1.63l-6,20.17a2,2,0,0,1-1.94,1.41,2,2,0,0,1-2-1.52Z"/><path d="M214.17,351.79l-2.15,5.1a2.08,2.08,0,0,1-1.9,1.34,2,2,0,0,1-2-2,2.09,2.09,0,0,1,.14-.74l8.31-20.23a2,2,0,0,1,3.73,0l8.3,20.23a1.91,1.91,0,0,1,.15.74,2,2,0,0,1-2,2,2.07,2.07,0,0,1-1.9-1.34l-2.15-5.1Zm4.25-11.12-2.88,7.39h5.77Z"/><path d="M246.15,348.87v7.32a2,2,0,1,1-4.08,0V336.3a2,2,0,0,1,2-2h6.72a7.06,7.06,0,0,1,7.43,7.36c0,3.34-2,6.58-5.42,7l5.21,6.33a2.08,2.08,0,0,1,.42,1.24,2,2,0,0,1-2,2,2.08,2.08,0,0,1-1.59-.74l-6.4-8.62Zm0-10.95v7.36h4.75c2.18,0,3.14-1.8,3.14-3.66s-1-3.7-3.24-3.7Z"/><path d="M276.41,344.08l8.45-9.43a2,2,0,0,1,3.45,1.3,1.91,1.91,0,0,1-.53,1.34l-6.62,7.18,7.78,10.59a1.91,1.91,0,0,1,.39,1.16,2,2,0,0,1-3.66,1.13l-7.25-10-2,2.11v6.76a2,2,0,1,1-4.08,0V336a2,2,0,0,1,4.08,0Z"/><path d="M118.22,374.54c0-2.7,1.29-4,3.55-4a3.16,3.16,0,0,1,2.74,1.23.62.62,0,0,1,.12.37.6.6,0,0,1-.61.6.59.59,0,0,1-.46-.22,2.17,2.17,0,0,0-1.79-.8c-1.51,0-2.19.93-2.19,2.81s.68,2.79,2.19,2.79a2.2,2.2,0,0,0,1.84-.75.68.68,0,0,1,.49-.25.61.61,0,0,1,.61.61.53.53,0,0,1-.11.34,3.55,3.55,0,0,1-2.83,1.23C119.51,378.51,118.22,377.32,118.22,374.54Z"/><path d="M130.5,375.42v2.36a.66.66,0,1,1-1.31,0v-6.41a.65.65,0,0,1,.66-.66H132a2.27,2.27,0,0,1,2.4,2.37,2.16,2.16,0,0,1-1.75,2.26l1.68,2.05a.64.64,0,0,1,.14.39.66.66,0,0,1-1.17.42l-2.07-2.78Zm0-3.53v2.37H132a1.2,1.2,0,0,0,0-2.37Z"/><path d="M141.42,373.62l1.71-2.69a.64.64,0,0,1,.56-.31.65.65,0,0,1,.65.66.6.6,0,0,1-.1.35l-2.17,3.24v2.91a.66.66,0,1,1-1.31,0v-2.91l-2.17-3.24a.6.6,0,0,1-.1-.35.65.65,0,0,1,.65-.66.63.63,0,0,1,.56.31Z"/><path d="M150,375.38v2.4a.66.66,0,1,1-1.31,0v-6.41a.65.65,0,0,1,.66-.66h2.16a2.34,2.34,0,1,1,0,4.67Zm0-3.49v2.3h1.41a1.15,1.15,0,0,0,0-2.3Z"/><path d="M161.51,371.87v5.91a.66.66,0,0,1-1.32,0v-5.91h-1.73a.58.58,0,0,1,0-1.16h4.79a.58.58,0,0,1,0,1.16Z"/><path d="M167.52,374.54c0-2.7,1.3-4,3.6-4s3.6,1.29,3.6,4-1.31,4-3.6,4S167.52,377.19,167.52,374.54Zm1.36,0c0,1.87.74,2.79,2.24,2.79s2.23-.92,2.23-2.79-.73-2.81-2.23-2.81S168.88,372.65,168.88,374.54Z"/><path d="M178.89,374.54c0-2.7,1.3-4,3.56-4a3.14,3.14,0,0,1,2.73,1.23.64.64,0,0,1,.13.37.6.6,0,0,1-.61.6.63.63,0,0,1-.47-.22,2.15,2.15,0,0,0-1.78-.8c-1.51,0-2.19.93-2.19,2.81s.68,2.79,2.19,2.79a2.21,2.21,0,0,0,1.84-.75.68.68,0,0,1,.49-.25.61.61,0,0,1,.61.61.54.54,0,0,1-.12.34,3.52,3.52,0,0,1-2.82,1.23C180.19,378.51,178.89,377.32,178.89,374.54Z"/><path d="M189.86,375.85v-4.57a.66.66,0,0,1,1.32,0v4.57a1.55,1.55,0,0,0,3.09,0v-4.57a.66.66,0,1,1,1.31,0v4.57c0,1.3-.56,2.66-2.86,2.66S189.86,377.15,189.86,375.85Z"/><path d="M201.61,375.42v2.36a.66.66,0,1,1-1.31,0v-6.41a.65.65,0,0,1,.66-.66h2.16a2.27,2.27,0,0,1,2.4,2.37,2.16,2.16,0,0,1-1.75,2.26l1.68,2.05a.64.64,0,0,1,.14.39.66.66,0,0,1-1.17.42l-2.07-2.78Zm0-3.53v2.37h1.54a1.2,1.2,0,0,0,0-2.37Z"/><path d="M211.38,375.42v2.36a.66.66,0,0,1-1.32,0v-6.41a.66.66,0,0,1,.66-.66h2.17a2.27,2.27,0,0,1,2.39,2.37,2.16,2.16,0,0,1-1.75,2.26l1.68,2.05a.59.59,0,0,1,.14.39.65.65,0,0,1-.66.66.67.67,0,0,1-.51-.24l-2.06-2.78Zm0-3.53v2.37h1.53a1.2,1.2,0,0,0,0-2.37Z"/><path d="M221.14,373.92h2.15a.58.58,0,1,1,0,1.16h-2.15v2.09h3a.59.59,0,1,1,0,1.18h-3.67a.65.65,0,0,1-.65-.66v-6.32a.65.65,0,0,1,.65-.66H224a.59.59,0,0,1,0,1.18h-2.89Z"/><path d="M234.94,371.27v6.52a.66.66,0,0,1-.65.65.63.63,0,0,1-.53-.28l-3.35-4.84v4.47a.65.65,0,1,1-1.3,0v-6.52a.66.66,0,0,1,.65-.65.59.59,0,0,1,.52.27l3.36,4.87v-4.49a.65.65,0,0,1,1.3,0Z"/><path d="M239.35,374.54c0-2.7,1.3-4,3.56-4a3.14,3.14,0,0,1,2.73,1.23.64.64,0,0,1,.13.37.61.61,0,0,1-.62.6.62.62,0,0,1-.46-.22,2.15,2.15,0,0,0-1.78-.8c-1.51,0-2.19.93-2.19,2.81s.68,2.79,2.19,2.79a2.21,2.21,0,0,0,1.84-.75.67.67,0,0,1,.48-.25.61.61,0,0,1,.62.61.54.54,0,0,1-.12.34,3.52,3.52,0,0,1-2.82,1.23C240.65,378.51,239.35,377.32,239.35,374.54Z"/><path d="M252.79,373.62l1.71-2.69a.64.64,0,0,1,.56-.31.65.65,0,0,1,.65.66.6.6,0,0,1-.1.35l-2.17,3.24v2.91a.66.66,0,1,1-1.31,0v-2.91L250,371.63a.6.6,0,0,1-.1-.35.65.65,0,0,1,.65-.66.63.63,0,0,1,.56.31Z"/><path d="M296.75,47l-9.65-3A14.1,14.1,0,0,0,274.47,46a15,15,0,0,0-6.1,11.76l-.47-.1V49.07a14.89,14.89,0,0,0-10.46-14.32L247.9,31.9a14.15,14.15,0,0,0-12.48,2.18,15.07,15.07,0,0,0-6.08,11.85l-.06,3.53-4.46-1,.05-12.91a14.74,14.74,0,0,0-10.28-14.3l-23.13-7.22a14,14,0,0,0-8.39,0l-23.16,7.1a14.74,14.74,0,0,0-10.35,14.25l0,12.91-4.46.93,0-3.53a15.06,15.06,0,0,0-6-11.88,14.13,14.13,0,0,0-12.47-2.24L117,34.4a14.91,14.91,0,0,0-10.53,14.28l0,8.62-.47.09a15,15,0,0,0-6-11.78,14.14,14.14,0,0,0-12.63-2.17l-9.66,3A14.73,14.73,0,0,0,67.27,60.63l-.18,72.86L66.9,210.1a14.9,14.9,0,0,0,6.74,12.62l105.21,68.33a14.26,14.26,0,0,0,15.47,0l105.54-67.81a14.93,14.93,0,0,0,6.81-12.58l.17-72,.2-77.45A14.76,14.76,0,0,0,296.75,47ZM186.62,275l-102-66.28.36-146.09,3.36-1a14.9,14.9,0,0,0,5.49,11,14.24,14.24,0,0,0,11.89,2.91l6.79-1.41A14.86,14.86,0,0,0,124.1,59.55l0-8.82,3.29-1,0,3.2A15,15,0,0,0,133,64.5a14.24,14.24,0,0,0,11.83,2.86l10.75-2.24a14.85,14.85,0,0,0,11.63-14.57V37.41l20-6.14,20,6.24-.05,13.14a14.86,14.86,0,0,0,11.56,14.63l10.74,2.29a14.18,14.18,0,0,0,11.84-2.81,14.94,14.94,0,0,0,5.62-11.5l.06-3.19,3.28,1,0,8.81a14.87,14.87,0,0,0,11.56,14.61l6.78,1.44a14.18,14.18,0,0,0,11.9-2.85,15,15,0,0,0,5.55-11l3.35,1L289,207.71Z"/><g class="cls-4"><path d="M296.85,47l-9.65-3A14.11,14.11,0,0,0,274.56,46a15.07,15.07,0,0,0-6.1,11.76l-.47-.1,0-8.63a14.91,14.91,0,0,0-10.46-14.32L248,31.9a14.14,14.14,0,0,0-12.48,2.18,15.07,15.07,0,0,0-6.09,11.85l-.06,3.53-4.45-1L225,35.6a14.76,14.76,0,0,0-10.28-14.3l-23.13-7.22a14,14,0,0,0-8.39,0L160,21.16a14.77,14.77,0,0,0-10.35,14.25V48.32l-4.46.93-.05-3.53a15.08,15.08,0,0,0-6-11.88,14.14,14.14,0,0,0-12.47-2.24l-9.57,2.8a14.91,14.91,0,0,0-10.53,14.28l0,8.62-.47.09a15.07,15.07,0,0,0-6-11.78,14.14,14.14,0,0,0-12.63-2.17l-9.67,3A14.76,14.76,0,0,0,67.36,60.63l-.18,72.86C67.3,86.74,85,62.65,85,62.65l3.35-1a14.94,14.94,0,0,0,5.5,11,14.23,14.23,0,0,0,11.89,2.91l6.78-1.41a14.86,14.86,0,0,0,11.63-14.55l0-8.82,3.28-1,0,3.2a15,15,0,0,0,5.57,11.53,14.24,14.24,0,0,0,11.83,2.86l10.75-2.24a14.83,14.83,0,0,0,11.62-14.57l0-13.14,20-6.14,20,6.24-.05,13.14a14.84,14.84,0,0,0,11.55,14.63l10.74,2.29a14.2,14.2,0,0,0,11.85-2.81A14.94,14.94,0,0,0,247,53.26l0-3.19,3.29,1,0,8.81a14.85,14.85,0,0,0,11.55,14.61l6.78,1.44a14.18,14.18,0,0,0,11.9-2.85,14.88,14.88,0,0,0,5.55-11l3.36,1-.36,146.09s17.73-23.82,17.85-70.57l.19-77.45A14.74,14.74,0,0,0,296.85,47ZM286.14,58.2Z"/><path d="M186.72,275l-102-66.28L85,62.65S67.3,86.74,67.18,133.49L67,210.1a14.91,14.91,0,0,0,6.75,12.62l105.2,68.33a14.26,14.26,0,0,0,15.47,0L300,223.28a14.9,14.9,0,0,0,6.81-12.58l.18-72c-.12,46.75-17.85,69-17.85,69Z"/><g class="cls-5"><circle class="cls-6" cx="75.37" cy="75.37" r="75.37"/></g><g class="cls-7"><circle class="cls-6" cx="298.56" cy="209.27" r="75.37"/></g></g></g></g></g></svg>