<svg xmlns="http://www.w3.org/2000/svg" viewBox="0 0 798.45 243.3"><defs><style>.cls-1{fill:#fff;}</style></defs><title>Bulwark_Logo_With_URL_Light</title><g id="Layer_2" data-name="Layer 2"><g id="Isolation_Mode" data-name="Isolation Mode"><g id="Layer_1-2" data-name="Layer 1"><path class="cls-1" d="M199.79,29.13l-8.39-2.61a12.28,12.28,0,0,0-11,1.83,13.11,13.11,0,0,0-5.3,10.21l-.41-.08,0-7.5a13,13,0,0,0-9.09-12.45l-8.3-2.47A12.24,12.24,0,0,0,146.48,18a13.09,13.09,0,0,0-5.29,10.3l-.05,3.07-3.88-.83.05-11.22a12.82,12.82,0,0,0-8.94-12.43L108.27.56a12.33,12.33,0,0,0-7.29,0L80.84,6.72a12.82,12.82,0,0,0-9,12.39l0,11.22L68,31.14l0-3.07a13.1,13.1,0,0,0-5.24-10.33A12.27,12.27,0,0,0,51.84,15.8l-8.31,2.43a12.94,12.94,0,0,0-9.15,12.41l0,7.49-.41.08A13.12,13.12,0,0,0,28.7,28a12.26,12.26,0,0,0-11-1.88l-8.4,2.57A12.84,12.84,0,0,0,.32,41L.16,104.35,0,170.94a13,13,0,0,0,5.86,11L97.3,241.3a12.41,12.41,0,0,0,13.45,0l91.74-59a12.94,12.94,0,0,0,5.91-10.93l.16-62.59.16-67.33A12.82,12.82,0,0,0,199.79,29.13ZM104.06,227.37,15.37,169.76l.31-127,2.92-.89a13,13,0,0,0,4.78,9.54A12.33,12.33,0,0,0,33.71,54l5.9-1.23A12.91,12.91,0,0,0,49.72,40.09l0-7.67,2.85-.83,0,2.77a13,13,0,0,0,4.84,10,12.39,12.39,0,0,0,10.28,2.49l9.34-2A12.91,12.91,0,0,0,87.2,32.26V20.84l17.38-5.33,17.34,5.42,0,11.42a12.92,12.92,0,0,0,10,12.72l9.34,2a12.36,12.36,0,0,0,10.29-2.44,13,13,0,0,0,4.89-10l.05-2.77,2.85.85,0,7.66a12.9,12.9,0,0,0,10,12.69l5.89,1.26a12.34,12.34,0,0,0,10.34-2.48,13,13,0,0,0,4.83-9.52l2.91.91L193,168.87Z"/></g><path class="cls-1" d="M319.33,105a24.38,24.38,0,0,1,5.49,15.66q.07,13.11-8.59,20.5t-24.94,7.49l-47.37.28-.6-101.8,46.22-.27q15.56-.09,24.09,6.62t8.61,19.25q0,9.21-4.81,15.36a22.58,22.58,0,0,1-12.77,8.07A25.5,25.5,0,0,1,319.33,105Zm-51.14-16.4,16.13-.1q12.81-.08,12.75-11T283.9,66.57l-15.84.09ZM299.6,117.3a10.7,10.7,0,0,0-3.65-8.54q-3.61-3.08-10.24-3l-17.42.1.13,22.9,17.57-.1Q299.67,128.53,299.6,117.3Z"/><path class="cls-1" d="M410.19,67.56l.47,80.34-24.77.15-.08-14.55a26.72,26.72,0,0,1-10.23,11.29,29.81,29.81,0,0,1-15.89,4.27q-13.81.09-22-9.08t-8.29-25.3L329.12,68l24.48-.14.25,43.63q.06,8.2,4.33,12.71t11.47,4.47q7.49,0,11.78-4.82t4.24-13.56l-.25-42.62Z"/><path class="cls-1" d="M444.44,41.15l.63,106.55-24.62.14-.63-106.55Z"/><path class="cls-1" d="M571.88,66.61l-20.12,80.46-27.5.17L509.4,93.47,495,147.41l-27.5.16L446.47,67.34l24.62-.14,11,57.82,14.64-58,26.21-.15,15.74,57.93L549,66.74Z"/><path class="cls-1" d="M620,69.49a25.17,25.17,0,0,1,9.86,11.32l-.09-14.54,24.48-.14.47,80.34-24.48.15-.08-14.55a25.05,25.05,0,0,1-9.73,11.43,28.92,28.92,0,0,1-15.81,4.27,32.54,32.54,0,0,1-17.81-4.86,34,34,0,0,1-12.47-14.25q-4.59-9.34-4.66-21.86-.07-12.67,4.41-22a34,34,0,0,1,12.3-14.33,32.56,32.56,0,0,1,17.75-5.07A29.2,29.2,0,0,1,620,69.49ZM599.46,92.22q-4.8,5.22-4.74,14.43T599.63,121q4.86,5.16,12.77,5.11a16.67,16.67,0,0,0,12.72-5.4q4.93-5.36,4.88-14.29t-5-14.3A16.77,16.77,0,0,0,612.17,87Q604.25,87,599.46,92.22Z"/><path class="cls-1" d="M700.55,69.31a30.28,30.28,0,0,1,15.74-4.41l.16,26.35-7.06,0q-9.79.06-15.16,4.26t-5.32,14.15l.21,36.57-24.62.14L664,66.07l24.62-.14L688.74,81A35,35,0,0,1,700.55,69.31Z"/><path class="cls-1" d="M768.61,145.81l-24.25-34,.2,34.13-24.62.14-.63-106.55,24.63-.14.34,58.45,23.86-32.39,28.94-.17-32.17,40.36,33.36,40Z"/><path class="cls-1" d="M266.62,164.78a11.64,11.64,0,0,1,4.22,4.86,18.82,18.82,0,0,1,0,15,11.58,11.58,0,0,1-4.22,4.88,11.13,11.13,0,0,1-6.07,1.7,9.8,9.8,0,0,1-5.4-1.43,8.27,8.27,0,0,1-3.3-3.88v5h-8.4V154.48h8.4v13.91a8.22,8.22,0,0,1,3.3-3.88,9.89,9.89,0,0,1,5.4-1.43A11.13,11.13,0,0,1,266.62,164.78Zm-13.12,7.46a7.84,7.84,0,0,0,0,9.75,6.17,6.17,0,0,0,8.7,0,8.17,8.17,0,0,0,0-9.82,5.67,5.67,0,0,0-4.35-1.77A5.74,5.74,0,0,0,253.5,172.24Z"/><path class="cls-1" d="M307.76,163.42v27.42h-8.45v-5a9.11,9.11,0,0,1-3.52,3.84,10.17,10.17,0,0,1-5.42,1.42,9.48,9.48,0,0,1-7.49-3.14c-1.86-2.1-2.78-5-2.78-8.65V163.42h8.35v14.89a6.11,6.11,0,0,0,1.45,4.35,5.77,5.77,0,0,0,7.93-.08,6.59,6.59,0,0,0,1.48-4.62V163.42Z"/><path class="cls-1" d="M325.69,154.48v36.36h-8.4V154.48Z"/><path class="cls-1" d="M375.3,163.42l-7,27.42h-9.39l-5-18.38-5,18.38h-9.38l-7-27.42h8.4l3.64,19.75,5.11-19.75h8.94l5.26,19.8,3.63-19.8Z"/><path class="cls-1" d="M397.9,164.51a8.53,8.53,0,0,1,3.34,3.88v-5h8.35v27.42h-8.35v-5a8.59,8.59,0,0,1-3.34,3.88,9.85,9.85,0,0,1-5.4,1.43,11.1,11.1,0,0,1-6.07-1.7,11.6,11.6,0,0,1-4.23-4.88,18.94,18.94,0,0,1,0-15,11.66,11.66,0,0,1,4.23-4.86,11.1,11.1,0,0,1,6.07-1.7A9.93,9.93,0,0,1,397.9,164.51Zm-7,7.71a8.13,8.13,0,0,0,0,9.82,6.16,6.16,0,0,0,8.69,0,7.84,7.84,0,0,0,0-9.75,5.72,5.72,0,0,0-4.34-1.79A5.65,5.65,0,0,0,390.85,172.22Z"/><path class="cls-1" d="M431.57,164.6a10.39,10.39,0,0,1,5.38-1.47v9h-2.41a8.31,8.31,0,0,0-5.18,1.42q-1.85,1.43-1.84,4.82v12.48h-8.4V163.42h8.4v5.16A12,12,0,0,1,431.57,164.6Z"/><path class="cls-1" d="M460.83,190.84l-8.21-11.65v11.65h-8.4V154.48h8.4v20l8.21-11h9.87l-11.05,13.71L471,190.84Z"/><path class="cls-1" d="M499,166a13,13,0,0,1,4.52,8h-8.89a4.71,4.71,0,0,0-1.62-2.75,4.82,4.82,0,0,0-3.09-1,4.48,4.48,0,0,0-3.64,1.75,9.8,9.8,0,0,0,0,10.16,4.48,4.48,0,0,0,3.64,1.75,4.82,4.82,0,0,0,3.09-1,4.71,4.71,0,0,0,1.62-2.76h8.89a13,13,0,0,1-4.52,8,13.65,13.65,0,0,1-8.89,2.92,14.69,14.69,0,0,1-7.14-1.7,12,12,0,0,1-4.89-4.88,15.17,15.17,0,0,1-1.77-7.47,15.32,15.32,0,0,1,1.74-7.49,12,12,0,0,1,4.89-4.86,14.89,14.89,0,0,1,7.17-1.7A13.59,13.59,0,0,1,499,166Z"/><path class="cls-1" d="M524.07,164.6a10.39,10.39,0,0,1,5.38-1.47v9h-2.4a8.32,8.32,0,0,0-5.19,1.42Q520,175,520,178.36v12.48h-8.4V163.42H520v5.16A12,12,0,0,1,524.07,164.6Z"/><path class="cls-1" d="M543.06,163.42l6.58,16.8,6.14-16.8h9.29L548,203.9h-9.23l6.43-14.1-11.49-26.38Z"/><path class="cls-1" d="M594.76,164.78a11.59,11.59,0,0,1,4.23,4.86,18.94,18.94,0,0,1,0,15,11.53,11.53,0,0,1-4.23,4.88,11.07,11.07,0,0,1-6.06,1.7,9.86,9.86,0,0,1-5.41-1.43,8.25,8.25,0,0,1-3.29-3.88v18h-8.4V163.42H580v5a8.2,8.2,0,0,1,3.29-3.88,9.94,9.94,0,0,1,5.41-1.43A11.07,11.07,0,0,1,594.76,164.78Zm-13.11,7.46a7.84,7.84,0,0,0,0,9.75,6.16,6.16,0,0,0,8.69,0,8.13,8.13,0,0,0,0-9.82,5.67,5.67,0,0,0-4.35-1.77A5.73,5.73,0,0,0,581.65,172.24Z"/><path class="cls-1" d="M624.16,183.61v7.23h-3.78q-4.82,0-7.49-2.39c-1.79-1.59-2.68-4.21-2.68-7.88V170.5h-3.68v-7.08h3.68v-6.73h8.4v6.73h5.5v7.08h-5.5v10.22a3.1,3.1,0,0,0,.66,2.26,3.22,3.22,0,0,0,2.24.63Z"/><path class="cls-1" d="M652.73,164.78a12.44,12.44,0,0,1,5.06,4.88,16.08,16.08,0,0,1,0,14.94,12.44,12.44,0,0,1-5.06,4.88,16.57,16.57,0,0,1-14.62,0A12.37,12.37,0,0,1,633,184.6a16.08,16.08,0,0,1,0-14.94,12.37,12.37,0,0,1,5.08-4.88,16.57,16.57,0,0,1,14.62,0Zm-11.35,7.31a7.08,7.08,0,0,0-1.65,5,7,7,0,0,0,1.65,5,5.38,5.38,0,0,0,4,1.72,5.29,5.29,0,0,0,4-1.72,7.05,7.05,0,0,0,1.62-5,7.17,7.17,0,0,0-1.62-5,5.28,5.28,0,0,0-4-1.74A5.36,5.36,0,0,0,641.38,172.09Z"/><path class="cls-1" d="M675,182.44v8.4h-8.7v-8.4Z"/><path class="cls-1" d="M704.33,166a13,13,0,0,1,4.52,8H700a4.71,4.71,0,0,0-1.62-2.75,4.83,4.83,0,0,0-3.1-1,4.47,4.47,0,0,0-3.63,1.75,9.74,9.74,0,0,0,0,10.16,4.47,4.47,0,0,0,3.63,1.75,4.83,4.83,0,0,0,3.1-1,4.71,4.71,0,0,0,1.62-2.76h8.89a13,13,0,0,1-4.52,8,13.65,13.65,0,0,1-8.89,2.92,14.73,14.73,0,0,1-7.15-1.7,12.09,12.09,0,0,1-4.89-4.88,15.17,15.17,0,0,1-1.76-7.47,15.32,15.32,0,0,1,1.74-7.49,11.92,11.92,0,0,1,4.89-4.86,14.84,14.84,0,0,1,7.17-1.7A13.59,13.59,0,0,1,704.33,166Z"/><path class="cls-1" d="M737.07,164.78a12.38,12.38,0,0,1,5.06,4.88,16.08,16.08,0,0,1,0,14.94,12.38,12.38,0,0,1-5.06,4.88,15.38,15.38,0,0,1-7.29,1.7,15.55,15.55,0,0,1-7.32-1.7,12.39,12.39,0,0,1-5.09-4.88,16.08,16.08,0,0,1,0-14.94,12.39,12.39,0,0,1,5.09-4.88,15.55,15.55,0,0,1,7.32-1.7A15.38,15.38,0,0,1,737.07,164.78Zm-11.34,7.31a7.08,7.08,0,0,0-1.65,5,7,7,0,0,0,1.65,5,5.6,5.6,0,0,0,8.08,0,7.05,7.05,0,0,0,1.62-5,7.17,7.17,0,0,0-1.62-5,5.56,5.56,0,0,0-8.08,0Z"/><path class="cls-1" d="M795.55,166.25c1.94,2.08,2.9,5,2.9,8.67v15.92H790.1V175.9a5.57,5.57,0,0,0-1.4-4.05,5,5,0,0,0-3.81-1.45,5.16,5.16,0,0,0-3.95,1.55,6.09,6.09,0,0,0-1.45,4.34v14.55h-8.4V175.9a5.69,5.69,0,0,0-1.37-4.05,5,5,0,0,0-3.79-1.45,5.31,5.31,0,0,0-4,1.52,6.06,6.06,0,0,0-1.47,4.37v14.55h-8.4V163.42h8.4v4.67a8.15,8.15,0,0,1,3.32-3.63,10,10,0,0,1,5.23-1.33,10.54,10.54,0,0,1,5.55,1.45,9.1,9.1,0,0,1,3.63,4.15,11,11,0,0,1,3.91-4.08,11.26,11.26,0,0,1,13.43,1.6Z"/></g></g></svg>