<svg xmlns="http://www.w3.org/2000/svg" viewBox="0 0 1212.25 279.92"><defs><style>.cls-1{fill:#fff;}</style></defs><title>Bulwark_Hardware_Store_White</title><g id="Layer_2" data-name="Layer 2"><g id="Layer_1-2" data-name="Layer 1"><path class="cls-1" d="M229.76,33.52l-9.65-3a13.89,13.89,0,0,0-12.54,2.1,15.07,15.07,0,0,0-6.1,11.76l-.09,0v0l-.47-.1V35.64a14.89,14.89,0,0,0-10.46-14.32l-9.55-2.85a14.35,14.35,0,0,0-4-.59,14.15,14.15,0,0,0-8.35,2.77,15.09,15.09,0,0,0-6.09,11.85L162.38,36l-.09,0v0l-4.46-1,0-12.91A14.74,14.74,0,0,0,147.6,7.87L124.47.65a13.74,13.74,0,0,0-8.29,0L93,7.73A14.77,14.77,0,0,0,82.66,22V34.89l-4.46.93v0l-.1,0,0-3.53a15.06,15.06,0,0,0-6-11.88,14.2,14.2,0,0,0-8.41-2.82,14.6,14.6,0,0,0-4,.58L50.08,21A14.91,14.91,0,0,0,39.55,35.25l0,8.62-.47.1v0L39,44a15,15,0,0,0-6-11.79A14,14,0,0,0,20.39,30l-9.67,3A14.76,14.76,0,0,0,.37,47.2L.19,120.06,0,196.67a14.91,14.91,0,0,0,6.75,12.62L112,277.62a14.11,14.11,0,0,0,15.38,0l105.54-67.81a14.93,14.93,0,0,0,6.81-12.58l.16-66.14h0v-5.88l.2-77.45A14.76,14.76,0,0,0,229.76,33.52Z"/><path class="cls-1" d="M348.41,94.86a18.33,18.33,0,0,1,4,11.78q0,9.84-6.54,15.35t-18.75,5.51H291.61V51.08H326.3q11.68,0,18.05,5.08t6.38,14.48a17.86,17.86,0,0,1-3.67,11.52,16.91,16.91,0,0,1-9.62,6A19.17,19.17,0,0,1,348.41,94.86ZM310.09,82.32H322.2q9.62,0,9.62-8.22T322,65.89H310.09ZM333.55,104a8.05,8.05,0,0,0-2.71-6.43q-2.7-2.33-7.67-2.32H310.09v17.18h13.19Q333.54,112.47,333.55,104Z"/><path class="cls-1" d="M377.27,51.08v44.1q0,7.57,3.4,11.57t9.89,4q6.48,0,9.89-4t3.41-11.57V51.08h18.48v44.1q0,10.81-4.22,18.21a27.38,27.38,0,0,1-11.51,11.14,35.76,35.76,0,0,1-16.48,3.72,34.44,34.44,0,0,1-16.21-3.67,26.1,26.1,0,0,1-11-11.13q-4-7.45-4-18.27V51.08Z"/><path class="cls-1" d="M450.88,113.34h24.65V127.5H432.4V51.08h18.48Z"/><path class="cls-1" d="M576.87,51.08,558.6,127.5H535.69L523.47,76.37,511.15,127.5H488.24L470,51.08h20.11l9.83,55.34,13.4-55.34h20.22l13.4,55.34,9.94-55.34Z"/><path class="cls-1" d="M624.44,113.55H595.79l-4.75,14H571.58l28-75.88h21.29l28,75.88H629.19Zm-4.76-14-9.51-28.1-9.62,28.1Z"/><path class="cls-1" d="M691.18,127.5,674.65,98.64h-4.22V127.5H652V51.08h31.56q9.07,0,15.35,3.14a21.68,21.68,0,0,1,9.4,8.59,24.61,24.61,0,0,1,3.13,12.48,22.2,22.2,0,0,1-4.59,14.16q-4.59,5.83-13.35,8l18.16,30.05ZM670.43,86h11.46q5.5,0,8.1-2.43t2.6-7.19a9.55,9.55,0,0,0-2.65-7.13q-2.66-2.59-8.05-2.59H670.43Z"/><path class="cls-1" d="M754.35,88.48l30.8,39H762.78L736.84,93.23V127.5H718.35V51.08h18.49V84.7L763,51.08h22.16Z"/><path class="cls-1" d="M357.65,151.66v76.42H339.06V196.19h-29v31.89H291.61V151.66h18.48v29.62h29V151.66Z"/><path class="cls-1" d="M413.57,214.14H384.93l-4.76,13.94H360.72l28-75.88H410l28,75.88H418.33Zm-4.75-14L399.3,172l-9.62,28.11Z"/><path class="cls-1" d="M480.32,228.08l-16.54-28.86h-4.22v28.86H441.08V151.66h31.56q9.08,0,15.35,3.14a21.62,21.62,0,0,1,9.4,8.59,24.61,24.61,0,0,1,3.14,12.48,22.15,22.15,0,0,1-4.6,14.16q-4.59,5.83-13.34,8l18.15,30.05Zm-20.76-41.51H471q5.52,0,8.11-2.43c1.73-1.62,2.59-4,2.59-7.19a9.51,9.51,0,0,0-2.65-7.13c-1.76-1.73-4.45-2.59-8.05-2.59H459.56Z"/><path class="cls-1" d="M571.42,209.65a33.8,33.8,0,0,1-13.83,13.57q-9,4.86-21.24,4.86H507.49V151.66h28.86q12.31,0,21.29,4.76a33.22,33.22,0,0,1,13.78,13.4,43.63,43.63,0,0,1,0,39.83Zm-19.89-3.84q6-5.72,6-16.1t-6-16.11q-6-5.72-16.81-5.73H526v43.67h8.75Q545.53,211.54,551.53,205.81Z"/><path class="cls-1" d="M683.64,151.66l-18.27,76.42H642.45L630.24,177l-12.32,51.13H595l-18.26-76.42h20.1L606.68,207l13.4-55.34h20.21L653.7,207l9.94-55.34Z"/><path class="cls-1" d="M731.2,214.14H702.56l-4.75,13.94H678.35l28-75.88h21.3l28,75.88H736Zm-4.75-14L716.94,172l-9.62,28.11Z"/><path class="cls-1" d="M798,228.08l-16.54-28.86h-4.22v28.86H758.71V151.66h31.56q9.09,0,15.35,3.14a21.62,21.62,0,0,1,9.4,8.59,24.61,24.61,0,0,1,3.14,12.48A22.2,22.2,0,0,1,813.57,190q-4.61,5.83-13.35,8l18.16,30.05Zm-20.76-41.51h11.46q5.52,0,8.11-2.43c1.73-1.62,2.59-4,2.59-7.19a9.51,9.51,0,0,0-2.65-7.13c-1.76-1.73-4.45-2.59-8.05-2.59H777.19Z"/><path class="cls-1" d="M843.6,166.36v16h25.83V196.3H843.6v17h29.08v14.81H825.12V151.66h47.56v14.7Z"/><path class="cls-1" d="M951.2,217.7a21.7,21.7,0,0,1-9.08,8.11,32,32,0,0,1-14.54,3q-12.86,0-21.18-6.27t-9.08-17.51H917a10.43,10.43,0,0,0,3.08,6.81,9.52,9.52,0,0,0,6.76,2.48,7.87,7.87,0,0,0,5.62-1.94,6.82,6.82,0,0,0,2-5.19,6.71,6.71,0,0,0-1.89-4.87,15,15,0,0,0-4.7-3.18q-2.82-1.24-7.78-3a94.11,94.11,0,0,1-11.84-4.81,21.75,21.75,0,0,1-7.89-6.91q-3.3-4.6-3.3-11.95a20.16,20.16,0,0,1,3.46-11.78,22.1,22.1,0,0,1,9.57-7.62,35,35,0,0,1,14-2.65q12.75,0,20.26,6.06t8.49,16.64h-20a10.31,10.31,0,0,0-2.75-6,8.14,8.14,0,0,0-6-2.21,7.71,7.71,0,0,0-5.25,1.73,6.35,6.35,0,0,0-2,5.08,6.44,6.44,0,0,0,1.79,4.59,13.57,13.57,0,0,0,4.48,3.08q2.7,1.19,7.79,3a86.56,86.56,0,0,1,12,4.91,23.08,23.08,0,0,1,8,7.08q3.35,4.65,3.35,12.11A21.06,21.06,0,0,1,951.2,217.7Z"/><path class="cls-1" d="M1015.05,151.66v14.7H994.29v61.72H975.7V166.36H955.17v-14.7Z"/><path class="cls-1" d="M1072.15,155.5A36.68,36.68,0,0,1,1086,169.44a42.42,42.42,0,0,1-.06,40.37,36.9,36.9,0,0,1-13.94,14,40.35,40.35,0,0,1-39,0,36.9,36.9,0,0,1-13.94-14,42.2,42.2,0,0,1,0-40.37A37,37,0,0,1,1033,155.5a40.57,40.57,0,0,1,39.13,0Zm-34.05,18.05q-5.36,5.89-5.35,16t5.35,16q5.36,5.94,14.43,5.94t14.38-5.94q5.4-5.94,5.4-16t-5.35-16q-5.36-5.94-14.43-5.94T1038.1,173.55Z"/><path class="cls-1" d="M1137.52,228.08,1121,199.22h-4.21v28.86h-18.49V151.66h31.57q9.08,0,15.34,3.14a21.65,21.65,0,0,1,9.41,8.59,24.61,24.61,0,0,1,3.13,12.48,22.2,22.2,0,0,1-4.59,14.16q-4.61,5.83-13.35,8L1158,228.08Zm-20.75-41.51h11.45q5.52,0,8.11-2.43c1.73-1.62,2.59-4,2.59-7.19a9.55,9.55,0,0,0-2.64-7.13c-1.77-1.73-4.45-2.59-8.06-2.59h-11.45Z"/><path class="cls-1" d="M1183.17,166.36v16H1209V196.3h-25.83v17h29.08v14.81h-47.56V151.66h47.56v14.7Z"/></g></g></svg>