<svg xmlns="http://www.w3.org/2000/svg" xmlns:xlink="http://www.w3.org/1999/xlink" viewBox="0 0 417.79 139.71"><defs><style>.cls-1{fill:url(#linear-gradient);}.cls-2{fill:url(#linear-gradient-2);}.cls-3{fill:none;}.cls-4{isolation:isolate;}.cls-5{fill:#fff;}.cls-6{clip-path:url(#clip-path);}.cls-7{fill:url(#linear-gradient-3);}.cls-8{fill:url(#linear-gradient-4);}.cls-9{mask:url(#mask);}.cls-10,.cls-12{opacity:0.19;mix-blend-mode:multiply;}.cls-10{fill:url(#radial-gradient);}.cls-11{mask:url(#mask-2);}.cls-12{fill:url(#radial-gradient-2);}</style><linearGradient id="linear-gradient" x1="-17.75" y1="-35.78" x2="149.39" y2="131.36" gradientTransform="translate(-1.9 38.19) rotate(0.14)" gradientUnits="userSpaceOnUse"><stop offset="0" stop-color="#00c6ff"/><stop offset="1" stop-color="#0072ff"/></linearGradient><linearGradient id="linear-gradient-2" x1="3.03" y1="-56.4" x2="169.49" y2="110.06" xlink:href="#linear-gradient"/><clipPath id="clip-path"><path class="cls-3" d="M114.4,17.32l-4.79-1.5a7,7,0,0,0-6.28,1.05,7.5,7.5,0,0,0-3,5.84l-.23-.05V18.38a7.41,7.41,0,0,0-5.2-7.12L90.14,9.85a7,7,0,0,0-6.2,1.08,7.47,7.47,0,0,0-3,5.89l0,1.75-2.22-.47,0-6.42a7.33,7.33,0,0,0-5.11-7.1L62.1,1a7,7,0,0,0-4.16,0L46.43,4.51a7.33,7.33,0,0,0-5.14,7.08V18l-2.22.46,0-1.75a7.49,7.49,0,0,0-3-5.9A7,7,0,0,0,29.86,9.7L25.1,11.09a7.4,7.4,0,0,0-5.23,7.09v4.28l-.23.05a7.46,7.46,0,0,0-3-5.85,7,7,0,0,0-6.27-1.08L5.55,17.05A7.34,7.34,0,0,0,.41,24.12L.32,60.31.23,98.36a7.39,7.39,0,0,0,3.35,6.27l52.26,33.94a7,7,0,0,0,3.84,1.14,7.12,7.12,0,0,0,3.84-1.12L116,104.9a7.4,7.4,0,0,0,3.38-6.24l.08-35.78.1-38.47A7.33,7.33,0,0,0,114.4,17.32ZM59.7,130.61,9,97.68l.18-72.56,1.67-.51a7.43,7.43,0,0,0,2.73,5.45,7.08,7.08,0,0,0,5.9,1.45l3.38-.7a7.39,7.39,0,0,0,5.77-7.23V19.2l1.64-.48,0,1.59A7.4,7.4,0,0,0,33.07,26,7.09,7.09,0,0,0,39,27.46l5.34-1.11a7.37,7.37,0,0,0,5.77-7.24V12.58L60,9.53l9.91,3.1,0,6.53a7.38,7.38,0,0,0,5.74,7.27L81,27.56a7,7,0,0,0,5.88-1.39,7.42,7.42,0,0,0,2.8-5.71l0-1.59,1.63.48v4.38A7.39,7.39,0,0,0,97,31l3.37.72a7.08,7.08,0,0,0,5.91-1.42,7.42,7.42,0,0,0,2.76-5.44l1.67.52-.18,71.8Z"/></clipPath><linearGradient id="linear-gradient-3" x1="18.93" y1="-42.09" x2="119.81" y2="62.61" gradientTransform="translate(-1.9 38.19) rotate(0.14)" gradientUnits="userSpaceOnUse"><stop offset="0" stop-color="#61ddff"/><stop offset="1" stop-color="#0098ff"/></linearGradient><linearGradient id="linear-gradient-4" x1="98.6" y1="82.53" x2="9.97" y2="-11" xlink:href="#linear-gradient-3"/><mask id="mask" x="-33" y="-6" width="152.46" height="145.71" maskUnits="userSpaceOnUse"><path class="cls-1" d="M59.75,130.61,9.06,97.68l.18-72.56S.43,37.09.37,60.31L.28,98.36a7.39,7.39,0,0,0,3.35,6.27l52.25,33.94a7.05,7.05,0,0,0,3.84,1.14,7.12,7.12,0,0,0,3.85-1.12L116,104.9a7.37,7.37,0,0,0,3.38-6.24l.09-35.78c-.06,23.23-8.86,34.29-8.86,34.29Z"/></mask><radialGradient id="radial-gradient" cx="6.32" cy="-6.77" r="37.44" gradientTransform="translate(-1.9 38.19) rotate(0.14)" gradientUnits="userSpaceOnUse"><stop offset="0" stop-color="#1d1d1b"/><stop offset="0.58" stop-color="#2c2c2a" stop-opacity="0.94"/><stop offset="0.78" stop-color="#60605f" stop-opacity="0.7"/><stop offset="0.93" stop-color="#bcbcbc" stop-opacity="0.3"/><stop offset="1" stop-color="#fff" stop-opacity="0"/></radialGradient><mask id="mask-2" x="0.37" y="0.67" width="152.37" height="134.71" maskUnits="userSpaceOnUse"><path class="cls-2" d="M114.45,17.32l-4.79-1.5a7,7,0,0,0-6.28,1.05,7.47,7.47,0,0,0-3,5.84l-.23-.05V18.38a7.4,7.4,0,0,0-5.19-7.12L90.18,9.85A7,7,0,0,0,84,10.93a7.5,7.5,0,0,0-3,5.89l0,1.75-2.21-.47,0-6.42a7.31,7.31,0,0,0-5.1-7.1L62.15,1A7.06,7.06,0,0,0,58,1L46.48,4.51a7.33,7.33,0,0,0-5.15,7.08V18l-2.22.46,0-1.75a7.49,7.49,0,0,0-3-5.9A7,7,0,0,0,29.9,9.7l-4.75,1.39a7.4,7.4,0,0,0-5.23,7.09v4.28l-.24.05a7.43,7.43,0,0,0-3-5.85,7,7,0,0,0-6.27-1.08L5.6,17.05A7.33,7.33,0,0,0,.46,24.12L.37,60.31C.43,37.09,9.24,25.12,9.24,25.12l1.67-.51a7.39,7.39,0,0,0,2.73,5.45,7.07,7.07,0,0,0,5.9,1.45l3.37-.7a7.39,7.39,0,0,0,5.78-7.23V19.2l1.63-.48,0,1.59A7.45,7.45,0,0,0,33.12,26,7.07,7.07,0,0,0,39,27.46l5.34-1.11a7.38,7.38,0,0,0,5.78-7.24V12.58L60,9.53,70,12.63l0,6.53a7.39,7.39,0,0,0,5.74,7.27L81,27.56a7,7,0,0,0,5.88-1.39,7.41,7.41,0,0,0,2.79-5.71l0-1.59,1.63.48v4.38A7.38,7.38,0,0,0,97.07,31l3.37.72a7.08,7.08,0,0,0,5.91-1.42,7.42,7.42,0,0,0,2.76-5.44l1.66.52-.17,71.8s8.8-11.06,8.86-34.29l.1-38.47A7.34,7.34,0,0,0,114.45,17.32Zm-5.32,5.59Z"/></mask><radialGradient id="radial-gradient-2" cx="117.35" cy="59.46" r="37.44" xlink:href="#radial-gradient"/></defs><title>1Artboard 1</title><g class="cls-4"><g id="Layer_2" data-name="Layer 2"><g id="Layer_1-2" data-name="Layer 1"><path class="cls-5" d="M161.93,69.57A2.57,2.57,0,0,1,159.37,67V42.35a2.56,2.56,0,0,1,2.56-2.56h8c6.68,0,9.07,3.63,9.07,7.7a6.54,6.54,0,0,1-3.27,6c3.31,1.28,4.6,3.67,4.6,7.12,0,5.4-3.23,8.94-9.61,8.94ZM164.5,52h5.4c2.79,0,3.94-1.59,3.94-3.81s-1.15-3.76-3.94-3.76h-5.4Zm0,13h6.19c3.15,0,4.39-1.68,4.39-4.34s-1.46-4.34-4.39-4.34H164.5Z"/><path class="cls-5" d="M197.77,59.83V42a2.57,2.57,0,1,1,5.14,0V59.83c0,2.7,1,5.85,6,5.85s6-3.15,6-5.85V42a2.57,2.57,0,0,1,5.14,0V59.83c0,5-2.22,10.36-11.16,10.36S197.77,64.88,197.77,59.83Z"/><path class="cls-5" d="M254.06,64.79a2.39,2.39,0,1,1,0,4.78H241a2.44,2.44,0,0,1-2.53-2.48V42a2.57,2.57,0,1,1,5.14,0V64.79Z"/><path class="cls-5" d="M285.34,49.88,280.25,68a2.56,2.56,0,0,1-4.91.13L267.77,42.8a2.32,2.32,0,0,1-.13-.8,2.57,2.57,0,0,1,2.56-2.57,2.52,2.52,0,0,1,2.44,1.77l5.18,18.59,5-18.5a2.58,2.58,0,0,1,5,0l5,18.5L298,41.2a2.52,2.52,0,0,1,2.43-1.77,2.56,2.56,0,0,1,2.44,3.37l-7.57,25.35a2.56,2.56,0,0,1-4.91-.13Z"/><path class="cls-5" d="M322.28,61.83l-2.7,6.41a2.6,2.6,0,0,1-2.39,1.68,2.52,2.52,0,0,1-2.34-3.45L325.29,41a2.55,2.55,0,0,1,2.35-1.6A2.52,2.52,0,0,1,330,41l10.45,25.44a2.52,2.52,0,0,1,.17.93,2.55,2.55,0,0,1-2.52,2.52,2.61,2.61,0,0,1-2.39-1.68L333,61.83Zm5.36-14L324,57.14h7.26Z"/><path class="cls-5" d="M362.5,58.15v9.21a2.57,2.57,0,0,1-5.13,0v-25a2.57,2.57,0,0,1,2.57-2.56h8.45A8.87,8.87,0,0,1,377.73,49c0,4.2-2.57,8.27-6.82,8.8l6.55,8a2.5,2.5,0,0,1,.53,1.55A2.58,2.58,0,0,1,373.43,69l-8.05-10.84Zm0-13.76v9.25h6c2.74,0,3.94-2.26,3.94-4.6s-1.2-4.65-4.08-4.65Z"/><path class="cls-5" d="M400.56,52.13l10.62-11.85a2.47,2.47,0,0,1,4.33,1.63,2.39,2.39,0,0,1-.66,1.68l-8.32,9,9.78,13.32a2.42,2.42,0,0,1,.49,1.46,2.53,2.53,0,0,1-4.61,1.42l-9.11-12.61-2.52,2.65v8.5a2.57,2.57,0,0,1-5.14,0V42a2.57,2.57,0,1,1,5.14,0Z"/><path class="cls-5" d="M161.93,69.57A2.57,2.57,0,0,1,159.37,67V42.35a2.56,2.56,0,0,1,2.56-2.56h8c6.68,0,9.07,3.63,9.07,7.7a6.54,6.54,0,0,1-3.27,6c3.31,1.28,4.6,3.67,4.6,7.12,0,5.4-3.23,8.94-9.61,8.94ZM164.5,52h5.4c2.79,0,3.94-1.6,3.94-3.81s-1.15-3.76-3.94-3.76h-5.4Zm0,13h6.19c3.15,0,4.39-1.68,4.39-4.34s-1.46-4.34-4.39-4.34H164.5Z"/><path class="cls-5" d="M197.77,59.83V42a2.57,2.57,0,1,1,5.14,0V59.83c0,2.7,1,5.84,6,5.84s6-3.14,6-5.84V42a2.57,2.57,0,0,1,5.14,0V59.83c0,5-2.22,10.36-11.16,10.36S197.77,64.88,197.77,59.83Z"/><path class="cls-5" d="M254.06,64.79a2.39,2.39,0,1,1,0,4.78H241a2.44,2.44,0,0,1-2.53-2.48V42a2.57,2.57,0,1,1,5.14,0V64.79Z"/><path class="cls-5" d="M285.34,49.88,280.25,68a2.56,2.56,0,0,1-4.91.13L267.77,42.8a2.32,2.32,0,0,1-.13-.8,2.57,2.57,0,0,1,2.56-2.57,2.52,2.52,0,0,1,2.44,1.77l5.18,18.59,5-18.5a2.58,2.58,0,0,1,5,0l5,18.5L298,41.2a2.52,2.52,0,0,1,2.43-1.77,2.56,2.56,0,0,1,2.44,3.37l-7.57,25.35a2.56,2.56,0,0,1-4.91-.13Z"/><path class="cls-5" d="M322.28,61.82l-2.7,6.42a2.61,2.61,0,0,1-2.39,1.68,2.52,2.52,0,0,1-2.34-3.45L325.29,41a2.55,2.55,0,0,1,2.35-1.6A2.52,2.52,0,0,1,330,41l10.45,25.44a2.52,2.52,0,0,1,.17.93,2.55,2.55,0,0,1-2.52,2.52,2.61,2.61,0,0,1-2.39-1.68L333,61.82Zm5.36-14L324,57.13h7.26Z"/><path class="cls-5" d="M362.5,58.15v9.21a2.57,2.57,0,0,1-5.13,0v-25a2.57,2.57,0,0,1,2.57-2.56h8.45A8.87,8.87,0,0,1,377.73,49c0,4.2-2.57,8.27-6.82,8.8l6.55,8a2.5,2.5,0,0,1,.53,1.55A2.58,2.58,0,0,1,373.43,69l-8.05-10.84Zm0-13.76v9.25h6c2.74,0,3.94-2.26,3.94-4.6s-1.2-4.65-4.08-4.65Z"/><path class="cls-5" d="M400.56,52.13l10.62-11.86a2.51,2.51,0,0,1,1.85-.84,2.47,2.47,0,0,1,2.48,2.48,2.39,2.39,0,0,1-.66,1.68l-8.32,9,9.78,13.32a2.42,2.42,0,0,1,.49,1.46,2.53,2.53,0,0,1-4.61,1.42l-9.11-12.61-2.52,2.65v8.5a2.57,2.57,0,0,1-5.14,0V42a2.57,2.57,0,1,1,5.14,0Z"/><g class="cls-6"><path class="cls-7" d="M114.45,17.32l-4.79-1.5a7,7,0,0,0-6.28,1.05,7.47,7.47,0,0,0-3,5.84l-.23-.05V18.38a7.4,7.4,0,0,0-5.19-7.12L90.18,9.85A7,7,0,0,0,84,10.93a7.5,7.5,0,0,0-3,5.89l0,1.75-2.21-.47,0-6.42a7.31,7.31,0,0,0-5.1-7.1L62.15,1A7.06,7.06,0,0,0,58,1L46.48,4.51a7.33,7.33,0,0,0-5.15,7.08V18l-2.22.46,0-1.75a7.49,7.49,0,0,0-3-5.9A7,7,0,0,0,29.9,9.7l-4.75,1.39a7.4,7.4,0,0,0-5.23,7.09v4.28l-.24.05a7.43,7.43,0,0,0-3-5.85,7,7,0,0,0-6.27-1.08L5.6,17.05A7.33,7.33,0,0,0,.46,24.12L.37,60.31C.43,37.09,9.24,25.12,9.24,25.12l1.67-.51a7.39,7.39,0,0,0,2.73,5.45,7.07,7.07,0,0,0,5.9,1.45l3.37-.7a7.39,7.39,0,0,0,5.78-7.23V19.2l1.63-.48,0,1.59A7.45,7.45,0,0,0,33.12,26,7.07,7.07,0,0,0,39,27.46l5.34-1.11a7.38,7.38,0,0,0,5.78-7.24V12.58L60,9.53,70,12.63l0,6.53a7.39,7.39,0,0,0,5.74,7.27L81,27.56a7,7,0,0,0,5.88-1.39,7.41,7.41,0,0,0,2.79-5.71l0-1.59,1.63.48v4.38A7.38,7.38,0,0,0,97.07,31l3.37.72a7.08,7.08,0,0,0,5.91-1.42,7.42,7.42,0,0,0,2.76-5.44l1.66.52-.18,72.57s8.81-11.83,8.87-35.06l.1-38.47A7.34,7.34,0,0,0,114.45,17.32Zm-5.32,5.59Z"/><path class="cls-8" d="M59.75,130.61,9.06,97.68l.18-72.56S.43,37.09.37,60.31L.28,98.36a7.39,7.39,0,0,0,3.35,6.27l52.25,33.94a7.05,7.05,0,0,0,3.84,1.14,7.12,7.12,0,0,0,3.85-1.12L116,104.9a7.37,7.37,0,0,0,3.38-6.24l.09-35.78c-.06,23.23-8.86,34.29-8.86,34.29Z"/><g class="cls-9"><circle class="cls-10" cx="4.44" cy="31.44" r="37.44"/></g><g class="cls-11"><circle class="cls-12" cx="115.3" cy="97.95" r="37.44"/></g></g></g><path class="cls-5" d="M246.46,94.09a.82.82,0,1,1-1.63,0V90.72h-4v3.37a.82.82,0,1,1-1.63,0v-8a.82.82,0,0,1,1.63,0v3.16h4V86.07a.82.82,0,0,1,1.63,0Z"/><path class="cls-5" d="M250.57,90.09c0-3.32,1.61-4.92,4.44-4.92s4.44,1.6,4.44,4.92S257.84,95,255,95,250.57,93.37,250.57,90.09Zm1.68,0c0,2.31.91,3.44,2.76,3.44s2.76-1.13,2.76-3.44-.91-3.46-2.76-3.46S252.25,87.76,252.25,90.09Z"/><path class="cls-5" d="M267.29,92.92,265.09,89v5.1a.8.8,0,1,1-1.6,0V86.05a.8.8,0,0,1,.8-.79.78.78,0,0,1,.71.44L268,91l3-5.33a.8.8,0,0,1,1.51.35v8.06a.8.8,0,1,1-1.59,0V89l-2.2,3.91a.78.78,0,0,1-.69.39A.77.77,0,0,1,267.29,92.92Z"/><path class="cls-5" d="M278.56,89.33h2.64a.72.72,0,1,1,0,1.43h-2.64v2.58h3.71a.73.73,0,0,1,0,1.45h-4.53a.81.81,0,0,1-.81-.81v-7.8a.81.81,0,0,1,.81-.81h4.37a.73.73,0,1,1,0,1.45h-3.55Z"/><path class="cls-5" d="M300.13,86.05v8.06a.81.81,0,0,1-.8.8.83.83,0,0,1-.66-.35l-4.13-6v5.52a.8.8,0,1,1-1.59,0V86.05a.8.8,0,0,1,.79-.79.75.75,0,0,1,.65.33l4.14,6V86.05a.8.8,0,0,1,1.6,0Z"/><path class="cls-5" d="M304.17,90.09c0-3.32,1.61-4.92,4.44-4.92s4.44,1.6,4.44,4.92-1.61,4.9-4.44,4.9S304.17,93.37,304.17,90.09Zm1.68,0c0,2.31.91,3.44,2.76,3.44s2.76-1.13,2.76-3.44-.91-3.46-2.76-3.46S305.85,87.76,305.85,90.09Z"/><path class="cls-5" d="M319.87,85.37c2.79,0,4.55,1.26,4.55,4.72s-1.76,4.7-4.55,4.7H318a.81.81,0,0,1-.81-.81v-7.8a.81.81,0,0,1,.81-.81Zm-1.08,8h1.08c1.79,0,2.87-.81,2.87-3.25s-1.08-3.27-2.87-3.27h-1.08Z"/><path class="cls-5" d="M330.15,89.33h2.64a.72.72,0,1,1,0,1.43h-2.64v2.58h3.71a.73.73,0,0,1,0,1.45h-4.53a.81.81,0,0,1-.81-.81v-7.8a.81.81,0,0,1,.81-.81h4.37a.73.73,0,1,1,0,1.45h-3.55Z"/></g></g></svg>