<svg xmlns="http://www.w3.org/2000/svg" xmlns:xlink="http://www.w3.org/1999/xlink" viewBox="0 0 957.13 328.02"><defs><style>.cls-1{fill:#252525;}.cls-2{clip-path:url(#clip-path);}</style><clipPath id="clip-path"><path class="cls-1" d="M250.67,59.76l-9.65-3a14.11,14.11,0,0,0-12.64,2.1,15.07,15.07,0,0,0-6.1,11.76l-.47-.1,0-8.62a14.92,14.92,0,0,0-10.46-14.33l-9.55-2.85a14.14,14.14,0,0,0-12.48,2.18,15.09,15.09,0,0,0-6.09,11.85l-.06,3.53-4.45-1,0-12.91a14.76,14.76,0,0,0-10.28-14.3l-23.13-7.22a14,14,0,0,0-8.39,0L113.82,34a14.77,14.77,0,0,0-10.35,14.25V61.14L99,62.06l0-3.53a15.08,15.08,0,0,0-6-11.88,14.17,14.17,0,0,0-12.47-2.24l-9.57,2.8A14.91,14.91,0,0,0,60.36,61.49l0,8.62-.47.1a15.07,15.07,0,0,0-6-11.79A14.14,14.14,0,0,0,41.2,56.25l-9.67,3A14.76,14.76,0,0,0,21.18,73.44L21,146.3l-.19,76.61a14.91,14.91,0,0,0,6.75,12.62l105.2,68.33a14.26,14.26,0,0,0,15.47,0l105.55-67.81a14.92,14.92,0,0,0,6.8-12.58l.18-72L261,74A14.74,14.74,0,0,0,250.67,59.76ZM140.54,287.83l-102-66.28.37-146.09,3.35-1a14.94,14.94,0,0,0,5.5,11A14.24,14.24,0,0,0,59.6,88.32l6.78-1.41A14.86,14.86,0,0,0,78,72.36l0-8.82,3.28-1,0,3.2a15,15,0,0,0,5.57,11.53,14.2,14.2,0,0,0,11.83,2.86l10.75-2.24a14.83,14.83,0,0,0,11.62-14.57l0-13.14,20-6.13,20,6.23,0,13.14A14.84,14.84,0,0,0,172.6,78.09l10.74,2.29a14.23,14.23,0,0,0,11.85-2.8,15,15,0,0,0,5.62-11.51l.05-3.19,3.29,1,0,8.81a14.85,14.85,0,0,0,11.55,14.61l6.78,1.44a14.18,14.18,0,0,0,11.9-2.85,14.88,14.88,0,0,0,5.55-11l3.36,1-.36,144.55Z"/></clipPath></defs><title>Bulwark_Logo_Dark</title><g id="Layer_2" data-name="Layer 2"><path class="cls-1" d="M250.67,59.76l-9.65-3a14.11,14.11,0,0,0-12.64,2.1,15.07,15.07,0,0,0-6.1,11.76l-.47-.1,0-8.62a14.92,14.92,0,0,0-10.46-14.33l-9.55-2.85a14.14,14.14,0,0,0-12.48,2.18,15.09,15.09,0,0,0-6.09,11.85l-.06,3.53-4.45-1,0-12.91a14.76,14.76,0,0,0-10.28-14.3l-23.13-7.22a14,14,0,0,0-8.39,0L113.82,34a14.77,14.77,0,0,0-10.35,14.25V61.14L99,62.06l0-3.53a15.08,15.08,0,0,0-6-11.88,14.17,14.17,0,0,0-12.47-2.24l-9.57,2.8A14.91,14.91,0,0,0,60.36,61.49l0,8.62-.47.1a15.07,15.07,0,0,0-6-11.79A14.14,14.14,0,0,0,41.2,56.25l-9.67,3A14.76,14.76,0,0,0,21.18,73.44L21,146.3l-.19,76.61a14.91,14.91,0,0,0,6.75,12.62l105.2,68.33a14.26,14.26,0,0,0,15.47,0l105.55-67.81a14.92,14.92,0,0,0,6.8-12.58l.18-72L261,74A14.74,14.74,0,0,0,250.67,59.76ZM140.54,287.83l-102-66.28.37-146.09,3.35-1a14.94,14.94,0,0,0,5.5,11A14.24,14.24,0,0,0,59.6,88.32l6.78-1.41A14.86,14.86,0,0,0,78,72.36l0-8.82,3.28-1,0,3.2a15,15,0,0,0,5.57,11.53,14.2,14.2,0,0,0,11.83,2.86l10.75-2.24a14.83,14.83,0,0,0,11.62-14.57l0-13.14,20-6.13,20,6.23,0,13.14A14.84,14.84,0,0,0,172.6,78.09l10.74,2.29a14.23,14.23,0,0,0,11.85-2.8,15,15,0,0,0,5.62-11.51l.05-3.19,3.29,1,0,8.81a14.85,14.85,0,0,0,11.55,14.61l6.78,1.44a14.18,14.18,0,0,0,11.9-2.85,14.88,14.88,0,0,0,5.55-11l3.36,1-.36,144.55Z"/><g class="cls-2"><path class="cls-1" d="M250.76,59.76l-9.65-3a14.09,14.09,0,0,0-12.63,2.1,15,15,0,0,0-6.1,11.76l-.47-.1V61.89a14.89,14.89,0,0,0-10.46-14.33l-9.55-2.85a14.15,14.15,0,0,0-12.48,2.18,15.08,15.08,0,0,0-6.08,11.85l-.06,3.53-4.46-1,0-12.91a14.74,14.74,0,0,0-10.28-14.3l-23.13-7.22a14,14,0,0,0-8.39,0L113.92,34a14.74,14.74,0,0,0-10.35,14.25l0,12.92-4.46.92,0-3.53a15.06,15.06,0,0,0-6-11.88,14.16,14.16,0,0,0-12.47-2.24L71,47.21A14.91,14.91,0,0,0,60.46,61.49l0,8.62-.47.1a15,15,0,0,0-6-11.79,14.14,14.14,0,0,0-12.63-2.17l-9.66,3A14.73,14.73,0,0,0,21.28,73.44L21.1,146.3C21.21,99.55,39,75.46,39,75.46l3.36-1a14.9,14.9,0,0,0,5.49,11,14.24,14.24,0,0,0,11.89,2.91l6.79-1.41A14.86,14.86,0,0,0,78.11,72.36l0-8.82,3.29-1,0,3.2A14.94,14.94,0,0,0,87,77.31a14.2,14.2,0,0,0,11.83,2.86l10.75-2.24a14.85,14.85,0,0,0,11.63-14.57V50.22l20-6.13,20,6.23-.05,13.14A14.86,14.86,0,0,0,172.7,78.09l10.73,2.29a14.22,14.22,0,0,0,11.85-2.8,15,15,0,0,0,5.62-11.51l.06-3.19,3.28,1,0,8.81a14.87,14.87,0,0,0,11.56,14.61l6.78,1.44a14.18,14.18,0,0,0,11.9-2.85,15,15,0,0,0,5.55-11l3.35,1L243,222.06s17.74-23.82,17.85-70.57l.2-77.45A14.76,14.76,0,0,0,250.76,59.76ZM240.05,71Z"/><path class="cls-1" d="M140.63,287.83l-102-66.28L39,75.46S21.21,99.55,21.1,146.3l-.19,76.61a14.9,14.9,0,0,0,6.74,12.62l105.21,68.33a14.19,14.19,0,0,0,7.73,2.3,14.34,14.34,0,0,0,7.74-2.26l105.54-67.81a14.93,14.93,0,0,0,6.81-12.58l.17-72c-.11,46.75-17.85,69-17.85,69Z"/></g><path class="cls-1" d="M390.16,167.8a28,28,0,0,1,6.12,17.91q0,15-9.88,23.33t-28.34,8.38H304.33V101.25h52.43q17.64,0,27.27,7.72t9.64,22q0,10.51-5.55,17.5a25.56,25.56,0,0,1-14.54,9.12A28.86,28.86,0,0,1,390.16,167.8Zm-57.9-19.06h18.29q14.54,0,14.54-12.49t-14.86-12.49h-18Zm35.44,33q0-6.24-4.08-9.77T352,168.45H332.26v26.13h19.93Q367.7,194.58,367.7,181.76Z"/><path class="cls-1" d="M493.46,125.73v91.69H465.37v-16.6a30.35,30.35,0,0,1-11.68,12.82,33.76,33.76,0,0,1-18.05,4.77q-15.67,0-24.9-10.52T401.51,179V125.73h27.76v49.79q0,9.36,4.82,14.54t13,5.18q8.49,0,13.39-5.43t4.9-15.44V125.73Z"/><path class="cls-1" d="M532.49,95.83V217.42H504.57V95.83Z"/><path class="cls-1" d="M676.87,125.73l-23.35,91.69h-31.2L605.82,156l-16.65,61.45H558l-23.35-91.69h27.92l12.09,66.06,17-66.06h29.72L638.82,192l12.08-66.22Z"/><path class="cls-1" d="M731.42,129.35a28.63,28.63,0,0,1,11.11,13v-16.6h27.76v91.69H742.53v-16.6a28.57,28.57,0,0,1-11.11,13q-7.51,4.77-18,4.77a36.71,36.71,0,0,1-20.17-5.67,38.69,38.69,0,0,1-14-16.35q-5.15-10.68-5.15-25,0-14.46,5.15-25.06a38.76,38.76,0,0,1,14-16.27,36.71,36.71,0,0,1,20.17-5.67Q723.9,124.58,731.42,129.35ZM708,155.14q-5.46,5.93-5.47,16.44T708,188q5.47,5.91,14.46,5.91a18.78,18.78,0,0,0,14.45-6.08q5.64-6.08,5.64-16.26,0-10.37-5.64-16.35a18.93,18.93,0,0,0-14.45-6Q713.46,149.23,708,155.14Z"/><path class="cls-1" d="M822.8,129.68a34.21,34.21,0,0,1,17.88-4.93v30.07h-8q-11.1,0-17.23,4.76t-6.12,16.1v41.74H781.4V125.73h27.93V143A39.6,39.6,0,0,1,822.8,129.68Z"/><path class="cls-1" d="M899.48,217.42l-27.27-38.94v38.94H844.28V95.83h27.93v66.71l27.27-36.81h32.83l-36.75,45.85,37.57,45.84Z"/></g></svg>