<svg xmlns="http://www.w3.org/2000/svg" xmlns:xlink="http://www.w3.org/1999/xlink" viewBox="0 0 402.1 139.4"><defs><style>.cls-1{fill:#4c4c4c;}.cls-2{fill:url(#linear-gradient);}</style><linearGradient id="linear-gradient" x1="155.06" y1="649.5" x2="294.46" y2="649.5" gradientTransform="matrix(0, 1, 1, 0, -587.05, -155.06)" gradientUnits="userSpaceOnUse"><stop offset="0" stop-color="#61ddff"/><stop offset="1" stop-color="#0098ff"/></linearGradient></defs><title>Layer 2</title><g id="Layer_2" data-name="Layer 2"><g id="Layer_1-2" data-name="Layer 1"><g id="Layer_2-2" data-name="Layer 2"><g id="Layer_1-3" data-name="Layer 1"><path class="cls-1" d="M147.1,68.5a2.65,2.65,0,0,1-2.6-2.6V41.3a2.65,2.65,0,0,1,2.6-2.6h8c6.7,0,9.1,3.6,9.1,7.7a6.58,6.58,0,0,1-3.3,6c3.3,1.3,4.6,3.7,4.6,7.1,0,5.4-3.2,8.9-9.6,8.9h-8.8Zm2.6-17.6h5.4c2.8,0,3.9-1.6,3.9-3.8s-1.2-3.8-3.9-3.8h-5.4Zm0,13h6.2c3.1,0,4.4-1.7,4.4-4.3s-1.5-4.3-4.4-4.3h-6.2Z"/><path class="cls-1" d="M183,58.8V40.9a2.6,2.6,0,1,1,5.2,0V58.7c0,2.7,1,5.8,6,5.8s6-3.1,6-5.8V40.9a2.6,2.6,0,1,1,5.2,0V58.7c0,5-2.2,10.4-11.2,10.4S183,63.8,183,58.8Z"/><path class="cls-1" d="M239.3,63.7a2.39,2.39,0,0,1,2.5,2.4,2.34,2.34,0,0,1-2.5,2.4H226.2a2.42,2.42,0,0,1-2.5-2.5V40.9a2.6,2.6,0,1,1,5.2,0V63.7Z"/><path class="cls-1" d="M270.6,48.8l-5.1,18.1a2.58,2.58,0,0,1-2.5,1.9,2.49,2.49,0,0,1-2.4-1.8L253,41.6a2.2,2.2,0,0,1-.1-.8,2.65,2.65,0,0,1,2.6-2.6,2.44,2.44,0,0,1,2.4,1.8l5.2,18.6,5-18.5a2.59,2.59,0,0,1,5,0l5,18.5L283.3,40a2.44,2.44,0,0,1,2.4-1.8,2.65,2.65,0,0,1,2.6,2.6,2.2,2.2,0,0,1-.1.8l-7.6,25.5a2.55,2.55,0,0,1-4.9-.1Z"/><path class="cls-1" d="M307.5,60.8l-2.7,6.4a2.63,2.63,0,0,1-2.4,1.7,2.54,2.54,0,0,1-2.5-2.5,1.49,1.49,0,0,1,.2-.9l10.4-25.4a2.63,2.63,0,0,1,2.3-1.6,2.5,2.5,0,0,1,2.3,1.6l10.5,25.3a3.71,3.71,0,0,1,.2.9,2.54,2.54,0,0,1-2.5,2.5,2.63,2.63,0,0,1-2.4-1.7l-2.7-6.4H307.5Zm5.4-14-3.6,9.3h7.3Z"/><path class="cls-1" d="M347.7,57.1v9.2a2.58,2.58,0,0,1-2.6,2.6,2.65,2.65,0,0,1-2.6-2.6v-25a2.65,2.65,0,0,1,2.6-2.6h8.5c6,0,9.3,4.2,9.3,9.2,0,4.2-2.6,8.3-6.8,8.8l6.5,8a2.44,2.44,0,0,1,.5,1.5,2.65,2.65,0,0,1-2.6,2.6,2.88,2.88,0,0,1-2-.9l-7.9-10.8Zm0-13.8v9.2h6c2.7,0,3.9-2.3,3.9-4.6s-1.2-4.6-4.1-4.6Z"/><path class="cls-1" d="M385.8,51.1l10.6-11.9a2.36,2.36,0,0,1,1.9-.8,2.48,2.48,0,0,1,2.5,2.5,2.61,2.61,0,0,1-.7,1.7l-8.3,9,9.8,13.3a2.46,2.46,0,0,1,.5,1.5,2.52,2.52,0,0,1-4.6,1.4l-9.1-12.6-2.5,2.7v8.4a2.58,2.58,0,0,1-2.6,2.6,2.65,2.65,0,0,1-2.6-2.6V40.9a2.6,2.6,0,1,1,5.2,0V51.1Z"/><path class="cls-1" d="M147.1,68.5a2.65,2.65,0,0,1-2.6-2.6V41.3a2.65,2.65,0,0,1,2.6-2.6h8c6.7,0,9.1,3.6,9.1,7.7a6.58,6.58,0,0,1-3.3,6c3.3,1.3,4.6,3.7,4.6,7.1,0,5.4-3.2,8.9-9.6,8.9h-8.8Zm2.6-17.6h5.4c2.8,0,3.9-1.6,3.9-3.8s-1.2-3.8-3.9-3.8h-5.4Zm0,13h6.2c3.1,0,4.4-1.7,4.4-4.3s-1.5-4.3-4.4-4.3h-6.2Z"/><path class="cls-1" d="M183,58.8V40.9a2.6,2.6,0,1,1,5.2,0V58.7c0,2.7,1,5.8,6,5.8s6-3.1,6-5.8V40.9a2.6,2.6,0,1,1,5.2,0V58.7c0,5-2.2,10.4-11.2,10.4S183,63.8,183,58.8Z"/><path class="cls-1" d="M239.3,63.7a2.39,2.39,0,0,1,2.5,2.4,2.34,2.34,0,0,1-2.5,2.4H226.2a2.42,2.42,0,0,1-2.5-2.5V40.9a2.6,2.6,0,1,1,5.2,0V63.7Z"/><path class="cls-1" d="M270.6,48.8l-5.1,18.1a2.58,2.58,0,0,1-2.5,1.9,2.49,2.49,0,0,1-2.4-1.8L253,41.6a2.2,2.2,0,0,1-.1-.8,2.65,2.65,0,0,1,2.6-2.6,2.44,2.44,0,0,1,2.4,1.8l5.2,18.6,5-18.5a2.59,2.59,0,0,1,5,0l5,18.5L283.3,40a2.44,2.44,0,0,1,2.4-1.8,2.65,2.65,0,0,1,2.6,2.6,2.2,2.2,0,0,1-.1.8l-7.6,25.5a2.55,2.55,0,0,1-4.9-.1Z"/><path class="cls-1" d="M307.5,60.8l-2.7,6.4a2.63,2.63,0,0,1-2.4,1.7,2.54,2.54,0,0,1-2.5-2.5,1.49,1.49,0,0,1,.2-.9l10.4-25.4a2.63,2.63,0,0,1,2.3-1.6,2.5,2.5,0,0,1,2.3,1.6l10.5,25.3a3.71,3.71,0,0,1,.2.9,2.48,2.48,0,0,1-2.5,2.5,2.63,2.63,0,0,1-2.4-1.7l-2.7-6.4H307.5Zm5.4-14-3.6,9.3h7.3Z"/><path class="cls-1" d="M347.7,57.1v9.2a2.6,2.6,0,1,1-5.2,0v-25a2.65,2.65,0,0,1,2.6-2.6h8.5c6,0,9.3,4.2,9.3,9.2,0,4.2-2.6,8.3-6.8,8.8l6.5,8a2.44,2.44,0,0,1,.5,1.5,2.65,2.65,0,0,1-2.6,2.6,2.88,2.88,0,0,1-2-.9l-7.9-10.8Zm0-13.8v9.2h6c2.7,0,3.9-2.3,3.9-4.6s-1.2-4.6-4.1-4.6Z"/><path class="cls-1" d="M385.8,51.1l10.6-11.9a2.36,2.36,0,0,1,1.9-.8,2.48,2.48,0,0,1,2.5,2.5,2.61,2.61,0,0,1-.7,1.7l-8.3,9,9.8,13.3a2.46,2.46,0,0,1,.5,1.5,2.52,2.52,0,0,1-4.6,1.4l-9.1-12.6-2.5,2.7v8.4a2.6,2.6,0,1,1-5.2,0V40.9a2.6,2.6,0,1,1,5.2,0V51.1Z"/><path class="cls-1" d="M202.7,100.8a.86.86,0,0,1-.8-.8V92.2a.86.86,0,0,1,.8-.8h2.5c2.1,0,2.9,1.1,2.9,2.4a2.24,2.24,0,0,1-1,1.9,2.17,2.17,0,0,1,1.5,2.3c0,1.7-1,2.8-3,2.8Zm.8-5.5h1.7a1.06,1.06,0,0,0,1.2-1.2,1.1,1.1,0,0,0-1.2-1.2h-1.7Zm0,4.1h2a1.22,1.22,0,0,0,1.4-1.4,1.27,1.27,0,0,0-1.4-1.4h-2Z"/><path class="cls-1" d="M217.6,99.3a.74.74,0,0,1,.8.8.79.79,0,0,1-.8.8h-4.1a.74.74,0,0,1-.8-.8V92.2a.8.8,0,0,1,1.6,0v7.2h3.3Z"/><path class="cls-1" d="M221.1,96.1c0-3.3,1.6-4.9,4.4-4.9s4.4,1.6,4.4,4.9-1.6,4.9-4.4,4.9S221.1,99.4,221.1,96.1Zm1.7,0c0,2.3.9,3.4,2.8,3.4s2.8-1.1,2.8-3.4-.9-3.5-2.8-3.5S222.8,93.8,222.8,96.1Z"/><path class="cls-1" d="M233.7,96.1c0-3.3,1.6-4.9,4.4-4.9a4.07,4.07,0,0,1,3.4,1.5c.1.2.2.3.2.5a.71.71,0,0,1-.8.7.86.86,0,0,1-.6-.3,2.87,2.87,0,0,0-2.2-1c-1.9,0-2.7,1.1-2.7,3.5s.8,3.4,2.7,3.4a2.81,2.81,0,0,0,2.3-.9.86.86,0,0,1,.6-.3.79.79,0,0,1,.8.8c0,.2-.1.3-.1.4a4.42,4.42,0,0,1-3.5,1.5C235.3,101,233.7,99.6,233.7,96.1Z"/><path class="cls-1" d="M247.5,95.3l3.4-3.8a.86.86,0,0,1,.6-.3.79.79,0,0,1,.8.8.76.76,0,0,1-.2.5l-2.6,2.9,3.1,4.2a.76.76,0,0,1,.2.5.86.86,0,0,1-.8.8,1,1,0,0,1-.7-.4l-2.9-4-.8.8V100a.8.8,0,1,1-1.6,0V92a.8.8,0,1,1,1.6,0v3.3Z"/><path class="cls-1" d="M264.1,95.4h2.6a.7.7,0,1,1,0,1.4h-2.6v2.6h3.7a.7.7,0,1,1,0,1.4h-4.5a.86.86,0,0,1-.8-.8V92.2a.86.86,0,0,1,.8-.8h4.4a.7.7,0,1,1,0,1.4h-3.6Z"/><path class="cls-1" d="M275.5,97.4l-2.2,3.2a1,1,0,0,1-.7.4.86.86,0,0,1-.8-.8c0-.2.1-.3.1-.4l2.6-3.7-2.4-3.4a.76.76,0,0,1-.2-.5.86.86,0,0,1,.8-.8.91.91,0,0,1,.7.3l2,3,2-3a.91.91,0,0,1,.7-.3.86.86,0,0,1,.8.8c0,.2-.1.3-.2.5l-2.4,3.4,2.6,3.7a.6.6,0,0,1,.1.4.86.86,0,0,1-.8.8.75.75,0,0,1-.7-.4Z"/><path class="cls-1" d="M284.6,97.2v3a.8.8,0,1,1-1.6,0V92.3a.86.86,0,0,1,.8-.8h2.7a2.68,2.68,0,0,1,2.9,2.9,2.73,2.73,0,0,1-2.9,2.9h-1.9Zm0-4.3v2.8h1.7a1.4,1.4,0,0,0,0-2.8Z"/><path class="cls-1" d="M298.5,99.3a.74.74,0,0,1,.8.8.79.79,0,0,1-.8.8h-4.1a.74.74,0,0,1-.8-.8V92.2a.8.8,0,0,1,1.6,0v7.2h3.3Z"/><path class="cls-1" d="M302,96.1c0-3.3,1.6-4.9,4.4-4.9s4.4,1.6,4.4,4.9-1.6,4.9-4.4,4.9S302,99.4,302,96.1Zm1.7,0c0,2.3.9,3.4,2.8,3.4s2.8-1.1,2.8-3.4-.9-3.5-2.8-3.5S303.7,93.8,303.7,96.1Z"/><path class="cls-1" d="M316.6,97.2v2.9a.8.8,0,0,1-1.6,0V92.2a.86.86,0,0,1,.8-.8h2.7a2.81,2.81,0,0,1,3,2.9,2.71,2.71,0,0,1-2.2,2.8l2.1,2.5c.1.2.2.3.2.5a.86.86,0,0,1-.8.8.71.71,0,0,1-.6-.3l-2.5-3.4Zm0-4.3v2.9h1.9c.9,0,1.2-.7,1.2-1.5s-.4-1.5-1.3-1.5h-1.8Z"/><path class="cls-1" d="M327.3,95.4h2.6a.7.7,0,1,1,0,1.4h-2.6v2.6H331a.7.7,0,1,1,0,1.4h-4.5a.86.86,0,0,1-.8-.8V92.2a.86.86,0,0,1,.8-.8h4.4a.7.7,0,1,1,0,1.4h-3.6Z"/><path class="cls-1" d="M337.4,97.2v2.9a.8.8,0,1,1-1.6,0V92.2a.86.86,0,0,1,.8-.8h2.7a2.81,2.81,0,0,1,3,2.9,2.71,2.71,0,0,1-2.2,2.8l2.1,2.5c.1.2.2.3.2.5a.86.86,0,0,1-.8.8.71.71,0,0,1-.6-.3l-2.5-3.4Zm0-4.3v2.9h1.9c.9,0,1.2-.7,1.2-1.5s-.4-1.5-1.3-1.5h-1.8Z"/></g><path class="cls-2" d="M62.5,139.4a15.48,15.48,0,0,1-7.8-2.1l-46.9-27A15.79,15.79,0,0,1,0,96.7v-54A15.79,15.79,0,0,1,7.8,29.1l46.8-27a15.72,15.72,0,0,1,15.7,0l46.8,27a15.79,15.79,0,0,1,7.8,13.6V96.8a15.79,15.79,0,0,1-7.8,13.6l-46.8,27A16.45,16.45,0,0,1,62.5,139.4Zm4-63.9v53.3l46-26.6a6.22,6.22,0,0,0,3.2-5.5V44.3L69.7,70A6.22,6.22,0,0,0,66.5,75.5ZM9.3,44.4V96.7a6.22,6.22,0,0,0,3.2,5.5L57.1,128V75.4a6.22,6.22,0,0,0-3.2-5.5ZM14,36.3,58.7,61.9a6.24,6.24,0,0,0,6.2,0l46-25.6L65.6,10.2a6.43,6.43,0,0,0-6.3,0h0Z"/></g></g></g></svg>